# MagicaVoxel @ Ephtracy

# group
o 

# material
mtllib block1.mtl
usemtl palette

# normals
vn -1 0 0
vn 1 0 0
vn 0 0 1
vn 0 0 -1
vn 0 -1 0
vn 0 1 0

# texcoords
vt 0.0253906 0.5
vt 0.0292969 0.5
vt 0.0488281 0.5
vt 0.0527344 0.5
vt 0.0566406 0.5
vt 0.0761719 0.5

# verts
v -0.5 0 0.5
v -0.5 0 -0.5
v -0.5 0.1 0.5
v -0.5 0.1 -0.5
v -0.5 0.3 0.5
v -0.5 0.3 0.4
v -0.5 0.3 -0.3
v -0.5 0.3 -0.4
v -0.5 0.4 0.5
v -0.5 0.4 0.4
v -0.5 0.4 0.2
v -0.5 0.4 0.1
v -0.5 0.4 -0.2
v -0.5 0.4 -0.3
v -0.5 0.4 -0.4
v -0.5 0.4 -0.5
v -0.5 0.5 0.4
v -0.5 0.5 0.3
v -0.5 0.5 0.2
v -0.5 0.5 0.1
v -0.5 0.5 0
v -0.5 0.5 -0.1
v -0.5 0.5 -0.2
v -0.5 0.5 -0.3
v -0.5 0.5 -0.4
v -0.5 0.5 -0.5
v -0.5 0.6 0.5
v -0.5 0.6 0.4
v -0.5 0.6 0.3
v -0.5 0.6 0.2
v -0.5 0.6 0.1
v -0.5 0.6 0
v -0.5 0.6 -0.1
v -0.5 0.6 -0.2
v -0.5 0.7 0.5
v -0.5 0.7 0.4
v -0.5 0.7 0.3
v -0.5 0.7 0.2
v -0.5 0.7 0.1
v -0.5 0.7 0
v -0.5 0.7 -0.1
v -0.5 0.7 -0.2
v -0.5 0.7 -0.3
v -0.5 0.7 -0.4
v -0.5 0.7 -0.5
v -0.5 0.8 0.5
v -0.5 0.8 0.4
v -0.5 0.8 0.3
v -0.5 0.8 0.2
v -0.5 0.8 0.1
v -0.5 0.8 0
v -0.5 0.8 -0.1
v -0.5 0.8 -0.3
v -0.5 0.8 -0.4
v -0.5 0.9 0.4
v -0.5 0.9 0.3
v -0.5 0.9 0.2
v -0.5 0.9 0.1
v -0.5 0.9 0
v -0.5 0.9 -0.1
v -0.5 0.9 -0.2
v -0.5 0.9 -0.4
v -0.5 0.9 -0.5
v -0.5 1 0.5
v -0.5 1 0.4
v -0.5 1 0.3
v -0.5 1 0.2
v -0.5 1 0
v -0.5 1 -0.1
v -0.5 1 -0.2
v -0.5 1 -0.4
v -0.5 1 -0.5
v 0.5 0 0.5
v 0.5 0 -0.5
v 0.5 0.1 0.5
v 0.5 0.1 -0.5
v 0.5 0.3 0.5
v 0.5 0.3 0.4
v 0.5 0.3 -0.4
v 0.5 0.3 -0.5
v 0.5 0.4 0.5
v 0.5 0.4 0.4
v 0.5 0.4 0.3
v 0.5 0.4 0.2
v 0.5 0.4 -0.2
v 0.5 0.4 -0.3
v 0.5 0.4 -0.4
v 0.5 0.5 0.4
v 0.5 0.5 0.3
v 0.5 0.5 0.2
v 0.5 0.5 0.1
v 0.5 0.5 0
v 0.5 0.5 -0.1
v 0.5 0.5 -0.2
v 0.5 0.5 -0.3
v 0.5 0.5 -0.4
v 0.5 0.5 -0.5
v 0.5 0.6 0.4
v 0.5 0.6 0.3
v 0.5 0.6 0.2
v 0.5 0.6 0.1
v 0.5 0.6 0
v 0.5 0.6 -0.1
v 0.5 0.6 -0.2
v 0.5 0.6 -0.3
v 0.5 0.7 0.4
v 0.5 0.7 0.3
v 0.5 0.7 0.2
v 0.5 0.7 0.1
v 0.5 0.7 0
v 0.5 0.7 -0.1
v 0.5 0.7 -0.2
v 0.5 0.7 -0.3
v 0.5 0.7 -0.4
v 0.5 0.8 0.5
v 0.5 0.8 0.4
v 0.5 0.8 0.3
v 0.5 0.8 0.2
v 0.5 0.8 0.1
v 0.5 0.8 0
v 0.5 0.8 -0.2
v 0.5 0.8 -0.3
v 0.5 0.8 -0.4
v 0.5 0.9 0.5
v 0.5 0.9 0.4
v 0.5 0.9 0.3
v 0.5 0.9 0.1
v 0.5 0.9 0
v 0.5 0.9 -0.1
v 0.5 0.9 -0.2
v 0.5 0.9 -0.3
v 0.5 0.9 -0.4
v 0.5 0.9 -0.5
v 0.5 1 0.5
v 0.5 1 0.4
v 0.5 1 0.3
v 0.5 1 0.1
v 0.5 1 0
v 0.5 1 -0.1
v 0.5 1 -0.2
v 0.5 1 -0.5
v -0.5 0 0.5
v -0.5 0.1 0.5
v -0.5 0.3 0.5
v -0.5 0.4 0.5
v -0.5 0.6 0.5
v -0.5 0.7 0.5
v -0.5 0.8 0.5
v -0.5 1 0.5
v -0.4 0.3 0.5
v -0.4 0.4 0.5
v -0.4 0.5 0.5
v -0.4 0.6 0.5
v -0.4 0.7 0.5
v -0.4 0.8 0.5
v -0.4 0.9 0.5
v -0.4 1 0.5
v -0.3 0.4 0.5
v -0.3 0.5 0.5
v -0.3 0.6 0.5
v -0.3 0.7 0.5
v -0.3 0.8 0.5
v -0.3 0.9 0.5
v -0.3 1 0.5
v -0.2 0.4 0.5
v -0.2 0.5 0.5
v -0.2 0.6 0.5
v -0.2 0.7 0.5
v -0.2 0.8 0.5
v -0.2 0.9 0.5
v -0.1 0.4 0.5
v -0.1 0.5 0.5
v -0.1 0.6 0.5
v -0.1 0.7 0.5
v -0.1 0.9 0.5
v -0.1 1 0.5
v 0 0.4 0.5
v 0 0.5 0.5
v 0 0.6 0.5
v 0 0.7 0.5
v 0 0.8 0.5
v 0 0.9 0.5
v 0 1 0.5
v 0.1 0.4 0.5
v 0.1 0.5 0.5
v 0.1 0.6 0.5
v 0.1 0.7 0.5
v 0.1 0.8 0.5
v 0.1 0.9 0.5
v 0.1 1 0.5
v 0.2 0.6 0.5
v 0.2 0.7 0.5
v 0.2 0.8 0.5
v 0.2 0.9 0.5
v 0.2 1 0.5
v 0.3 0.4 0.5
v 0.3 0.5 0.5
v 0.3 0.6 0.5
v 0.3 0.7 0.5
v 0.3 0.8 0.5
v 0.4 0.3 0.5
v 0.4 0.4 0.5
v 0.4 0.6 0.5
v 0.4 0.7 0.5
v 0.4 0.9 0.5
v 0.4 1 0.5
v 0.5 0 0.5
v 0.5 0.1 0.5
v 0.5 0.3 0.5
v 0.5 0.4 0.5
v 0.5 0.8 0.5
v 0.5 0.9 0.5
v 0.5 1 0.5
v -0.5 0 -0.5
v -0.5 0.1 -0.5
v -0.5 0.4 -0.5
v -0.5 0.5 -0.5
v -0.5 0.7 -0.5
v -0.5 0.9 -0.5
v -0.5 1 -0.5
v -0.4 0.4 -0.5
v -0.4 0.5 -0.5
v -0.4 0.7 -0.5
v -0.4 0.8 -0.5
v -0.4 0.9 -0.5
v -0.4 1 -0.5
v -0.3 0.5 -0.5
v -0.3 0.6 -0.5
v -0.3 0.7 -0.5
v -0.3 0.8 -0.5
v -0.2 0.4 -0.5
v -0.2 0.5 -0.5
v -0.2 0.6 -0.5
v -0.2 0.7 -0.5
v -0.2 0.8 -0.5
v -0.2 0.9 -0.5
v -0.2 1 -0.5
v -0.1 0.4 -0.5
v -0.1 0.5 -0.5
v -0.1 0.7 -0.5
v -0.1 0.8 -0.5
v -0.1 0.9 -0.5
v -0.1 1 -0.5
v 0 0.4 -0.5
v 0 0.5 -0.5
v 0 0.6 -0.5
v 0 0.7 -0.5
v 0 0.8 -0.5
v 0 0.9 -0.5
v 0 1 -0.5
v 0.1 0.4 -0.5
v 0.1 0.6 -0.5
v 0.1 0.7 -0.5
v 0.1 0.8 -0.5
v 0.1 0.9 -0.5
v 0.1 1 -0.5
v 0.2 0.4 -0.5
v 0.2 0.5 -0.5
v 0.2 0.7 -0.5
v 0.2 0.8 -0.5
v 0.2 0.9 -0.5
v 0.2 1 -0.5
v 0.3 0.5 -0.5
v 0.3 0.6 -0.5
v 0.3 0.7 -0.5
v 0.3 0.8 -0.5
v 0.3 0.9 -0.5
v 0.3 1 -0.5
v 0.4 0.3 -0.5
v 0.4 0.5 -0.5
v 0.4 0.6 -0.5
v 0.4 0.7 -0.5
v 0.4 0.8 -0.5
v 0.4 0.9 -0.5
v 0.5 0 -0.5
v 0.5 0.1 -0.5
v 0.5 0.3 -0.5
v 0.5 0.5 -0.5
v 0.5 0.9 -0.5
v 0.5 1 -0.5
v -0.5 0 0.5
v 0.5 0 0.5
v -0.4 0 0.4
v 0.4 0 0.4
v -0.4 0 -0.4
v 0.4 0 -0.4
v -0.5 0 -0.5
v 0.5 0 -0.5
v -0.5 1 0.5
v -0.4 1 0.5
v -0.3 1 0.5
v -0.1 1 0.5
v 0 1 0.5
v 0.1 1 0.5
v 0.2 1 0.5
v 0.4 1 0.5
v 0.5 1 0.5
v -0.5 1 0.4
v -0.4 1 0.4
v -0.2 1 0.4
v -0.1 1 0.4
v 0 1 0.4
v 0.1 1 0.4
v 0.2 1 0.4
v 0.4 1 0.4
v 0.5 1 0.4
v -0.5 1 0.3
v -0.4 1 0.3
v -0.3 1 0.3
v -0.2 1 0.3
v -0.1 1 0.3
v 0 1 0.3
v 0.1 1 0.3
v 0.3 1 0.3
v 0.4 1 0.3
v 0.5 1 0.3
v -0.5 1 0.2
v -0.4 1 0.2
v -0.3 1 0.2
v -0.1 1 0.2
v 0 1 0.2
v 0.1 1 0.2
v 0.2 1 0.2
v 0.3 1 0.2
v -0.4 1 0.1
v -0.3 1 0.1
v -0.2 1 0.1
v -0.1 1 0.1
v 0 1 0.1
v 0.1 1 0.1
v 0.2 1 0.1
v 0.3 1 0.1
v 0.4 1 0.1
v 0.5 1 0.1
v -0.5 1 0
v -0.4 1 0
v -0.3 1 0
v -0.2 1 0
v -0.1 1 0
v 0 1 0
v 0.1 1 0
v 0.2 1 0
v 0.3 1 0
v 0.4 1 0
v 0.5 1 0
v -0.5 1 -0.1
v -0.4 1 -0.1
v -0.3 1 -0.1
v -0.2 1 -0.1
v -0.1 1 -0.1
v 0 1 -0.1
v 0.1 1 -0.1
v 0.2 1 -0.1
v 0.3 1 -0.1
v 0.4 1 -0.1
v 0.5 1 -0.1
v -0.5 1 -0.2
v -0.4 1 -0.2
v -0.3 1 -0.2
v -0.2 1 -0.2
v -0.1 1 -0.2
v 0 1 -0.2
v 0.1 1 -0.2
v 0.2 1 -0.2
v 0.3 1 -0.2
v 0.4 1 -0.2
v 0.5 1 -0.2
v -0.4 1 -0.3
v -0.3 1 -0.3
v -0.2 1 -0.3
v -0.1 1 -0.3
v 0.3 1 -0.3
v 0.4 1 -0.3
v -0.5 1 -0.4
v -0.4 1 -0.4
v -0.3 1 -0.4
v -0.1 1 -0.4
v 0 1 -0.4
v 0.1 1 -0.4
v 0.2 1 -0.4
v 0.3 1 -0.4
v 0.4 1 -0.4
v -0.5 1 -0.5
v -0.4 1 -0.5
v -0.2 1 -0.5
v -0.1 1 -0.5
v 0 1 -0.5
v 0.1 1 -0.5
v 0.2 1 -0.5
v 0.3 1 -0.5
v 0.5 1 -0.5

# faces
f 3/6/1 2/6/1 1/6/1
f 4/6/1 2/6/1 3/6/1
f 5/4/1 4/4/1 3/4/1
f 6/4/1 4/4/1 5/4/1
f 7/4/1 4/4/1 6/4/1
f 8/4/1 4/4/1 7/4/1
f 9/6/1 6/6/1 5/6/1
f 10/4/1 7/4/1 6/4/1
f 10/6/1 6/6/1 9/6/1
f 11/4/1 7/4/1 10/4/1
f 12/4/1 7/4/1 11/4/1
f 13/4/1 7/4/1 12/4/1
f 14/6/1 8/6/1 7/6/1
f 14/4/1 7/4/1 13/4/1
f 15/4/1 4/4/1 8/4/1
f 15/6/1 8/6/1 14/6/1
f 16/4/1 4/4/1 15/4/1
f 17/1/1 10/1/1 9/1/1
f 17/4/1 11/4/1 10/4/1
f 18/4/1 11/4/1 17/4/1
f 19/6/1 12/6/1 11/6/1
f 19/4/1 11/4/1 18/4/1
f 20/4/1 13/4/1 12/4/1
f 20/6/1 12/6/1 19/6/1
f 21/4/1 13/4/1 20/4/1
f 22/4/1 13/4/1 21/4/1
f 23/6/1 14/6/1 13/6/1
f 23/4/1 13/4/1 22/4/1
f 24/2/1 15/2/1 14/2/1
f 24/6/1 14/6/1 23/6/1
f 25/6/1 16/6/1 15/6/1
f 25/2/1 15/2/1 24/2/1
f 26/6/1 16/6/1 25/6/1
f 27/1/1 17/1/1 9/1/1
f 28/6/1 18/6/1 17/6/1
f 28/1/1 17/1/1 27/1/1
f 29/4/1 19/4/1 18/4/1
f 29/6/1 18/6/1 28/6/1
f 30/1/1 20/1/1 19/1/1
f 30/4/1 19/4/1 29/4/1
f 31/6/1 21/6/1 20/6/1
f 31/1/1 20/1/1 30/1/1
f 32/1/1 22/1/1 21/1/1
f 32/6/1 21/6/1 31/6/1
f 33/6/1 23/6/1 22/6/1
f 33/1/1 22/1/1 32/1/1
f 34/1/1 24/1/1 23/1/1
f 34/6/1 23/6/1 33/6/1
f 35/2/1 28/2/1 27/2/1
f 36/1/1 29/1/1 28/1/1
f 36/2/1 28/2/1 35/2/1
f 37/6/1 30/6/1 29/6/1
f 37/1/1 29/1/1 36/1/1
f 38/4/1 31/4/1 30/4/1
f 38/6/1 30/6/1 37/6/1
f 39/1/1 32/1/1 31/1/1
f 39/4/1 31/4/1 38/4/1
f 40/6/1 33/6/1 32/6/1
f 40/1/1 32/1/1 39/1/1
f 41/3/1 34/3/1 33/3/1
f 41/6/1 33/6/1 40/6/1
f 42/1/1 24/1/1 34/1/1
f 42/3/1 34/3/1 41/3/1
f 43/6/1 25/6/1 24/6/1
f 43/1/1 24/1/1 42/1/1
f 44/1/1 26/1/1 25/1/1
f 44/6/1 25/6/1 43/6/1
f 45/1/1 26/1/1 44/1/1
f 46/1/1 36/1/1 35/1/1
f 47/2/1 37/2/1 36/2/1
f 47/1/1 36/1/1 46/1/1
f 48/1/1 38/1/1 37/1/1
f 48/2/1 37/2/1 47/2/1
f 49/6/1 39/6/1 38/6/1
f 49/1/1 38/1/1 48/1/1
f 50/2/1 40/2/1 39/2/1
f 50/6/1 39/6/1 49/6/1
f 51/1/1 41/1/1 40/1/1
f 51/2/1 40/2/1 50/2/1
f 52/2/1 42/2/1 41/2/1
f 52/1/1 41/1/1 51/1/1
f 52/2/1 43/2/1 42/2/1
f 53/1/1 44/1/1 43/1/1
f 53/2/1 43/2/1 52/2/1
f 54/2/1 45/2/1 44/2/1
f 54/1/1 44/1/1 53/1/1
f 55/2/1 48/2/1 47/2/1
f 55/2/1 47/2/1 46/2/1
f 55/2/1 49/2/1 48/2/1
f 56/2/1 49/2/1 55/2/1
f 57/1/1 50/1/1 49/1/1
f 57/2/1 49/2/1 56/2/1
f 58/2/1 54/2/1 53/2/1
f 58/1/1 50/1/1 57/1/1
f 58/2/1 51/2/1 50/2/1
f 58/2/1 53/2/1 52/2/1
f 58/2/1 52/2/1 51/2/1
f 59/2/1 54/2/1 58/2/1
f 60/2/1 54/2/1 59/2/1
f 61/2/1 54/2/1 60/2/1
f 62/2/1 45/2/1 54/2/1
f 62/2/1 54/2/1 61/2/1
f 63/2/1 45/2/1 62/2/1
f 64/2/1 55/2/1 46/2/1
f 65/3/1 56/3/1 55/3/1
f 65/2/1 55/2/1 64/2/1
f 66/1/1 57/1/1 56/1/1
f 66/3/1 56/3/1 65/3/1
f 67/2/1 58/2/1 57/2/1
f 67/1/1 57/1/1 66/1/1
f 67/2/1 59/2/1 58/2/1
f 68/1/1 60/1/1 59/1/1
f 68/2/1 59/2/1 67/2/1
f 69/3/1 61/3/1 60/3/1
f 69/1/1 60/1/1 68/1/1
f 70/2/1 62/2/1 61/2/1
f 70/3/1 61/3/1 69/3/1
f 71/1/1 63/1/1 62/1/1
f 71/2/1 62/2/1 70/2/1
f 72/1/1 63/1/1 71/1/1
f 73/6/2 74/6/2 75/6/2
f 75/6/2 74/6/2 76/6/2
f 75/4/2 76/4/2 77/4/2
f 77/4/2 76/4/2 78/4/2
f 78/4/2 76/4/2 79/4/2
f 79/4/2 76/4/2 80/4/2
f 77/6/2 78/6/2 81/6/2
f 78/4/2 79/4/2 82/4/2
f 81/6/2 78/6/2 82/6/2
f 82/4/2 79/4/2 83/4/2
f 83/4/2 79/4/2 84/4/2
f 84/4/2 79/4/2 85/4/2
f 85/4/2 79/4/2 86/4/2
f 79/6/2 80/6/2 87/6/2
f 86/4/2 79/4/2 87/4/2
f 81/1/2 82/1/2 88/1/2
f 82/6/2 83/6/2 88/6/2
f 83/1/2 84/1/2 89/1/2
f 88/6/2 83/6/2 89/6/2
f 84/4/2 85/4/2 90/4/2
f 89/1/2 84/1/2 90/1/2
f 90/4/2 85/4/2 91/4/2
f 91/4/2 85/4/2 92/4/2
f 92/4/2 85/4/2 93/4/2
f 85/6/2 86/6/2 94/6/2
f 93/4/2 85/4/2 94/4/2
f 86/1/2 87/1/2 95/1/2
f 94/6/2 86/6/2 95/6/2
f 87/6/2 80/6/2 96/6/2
f 95/1/2 87/1/2 96/1/2
f 96/6/2 80/6/2 97/6/2
f 81/1/2 88/1/2 98/1/2
f 88/1/2 89/1/2 98/1/2
f 89/4/2 90/4/2 99/4/2
f 98/1/2 89/1/2 99/1/2
f 90/1/2 91/1/2 100/1/2
f 99/4/2 90/4/2 100/4/2
f 91/6/2 92/6/2 101/6/2
f 100/1/2 91/1/2 101/1/2
f 92/4/2 93/4/2 102/4/2
f 101/6/2 92/6/2 102/6/2
f 93/6/2 94/6/2 103/6/2
f 102/4/2 93/4/2 103/4/2
f 94/1/2 95/1/2 104/1/2
f 103/6/2 94/6/2 104/6/2
f 95/4/2 96/4/2 105/4/2
f 104/1/2 95/1/2 105/1/2
f 81/1/2 98/1/2 106/1/2
f 98/6/2 99/6/2 106/6/2
f 99/6/2 100/6/2 106/6/2
f 106/6/2 100/6/2 107/6/2
f 100/2/2 101/2/2 108/2/2
f 107/6/2 100/6/2 108/6/2
f 101/1/2 102/1/2 109/1/2
f 108/2/2 101/2/2 109/2/2
f 102/6/2 103/6/2 110/6/2
f 109/1/2 102/1/2 110/1/2
f 103/1/2 104/1/2 111/1/2
f 110/6/2 103/6/2 111/6/2
f 104/6/2 105/6/2 112/6/2
f 111/1/2 104/1/2 112/1/2
f 105/4/2 96/4/2 113/4/2
f 112/6/2 105/6/2 113/6/2
f 96/1/2 97/1/2 114/1/2
f 113/4/2 96/4/2 114/4/2
f 81/1/2 106/1/2 115/1/2
f 106/3/2 107/3/2 116/3/2
f 115/1/2 106/1/2 116/1/2
f 107/1/2 108/1/2 117/1/2
f 116/3/2 107/3/2 117/3/2
f 108/2/2 109/2/2 118/2/2
f 117/1/2 108/1/2 118/1/2
f 109/6/2 110/6/2 119/6/2
f 118/2/2 109/2/2 119/2/2
f 111/2/2 112/2/2 120/2/2
f 119/6/2 110/6/2 120/6/2
f 110/2/2 111/2/2 120/2/2
f 112/1/2 113/1/2 121/1/2
f 120/2/2 112/2/2 121/2/2
f 113/6/2 114/6/2 122/6/2
f 121/1/2 113/1/2 122/1/2
f 114/1/2 97/1/2 123/1/2
f 122/6/2 114/6/2 123/6/2
f 116/2/2 117/2/2 124/2/2
f 115/2/2 116/2/2 124/2/2
f 118/2/2 119/2/2 124/2/2
f 117/2/2 118/2/2 124/2/2
f 124/2/2 119/2/2 125/2/2
f 125/2/2 119/2/2 126/2/2
f 119/1/2 120/1/2 127/1/2
f 126/2/2 119/2/2 127/2/2
f 121/2/2 122/2/2 128/2/2
f 127/1/2 120/1/2 128/1/2
f 120/2/2 121/2/2 128/2/2
f 128/2/2 122/2/2 129/2/2
f 129/2/2 122/2/2 130/2/2
f 122/3/2 123/3/2 131/3/2
f 130/2/2 122/2/2 131/2/2
f 123/1/2 97/1/2 132/1/2
f 131/3/2 123/3/2 132/3/2
f 132/1/2 97/1/2 133/1/2
f 124/3/2 125/3/2 134/3/2
f 125/5/2 126/5/2 135/5/2
f 134/3/2 125/3/2 135/3/2
f 126/2/2 127/2/2 136/2/2
f 135/5/2 126/5/2 136/5/2
f 127/3/2 128/3/2 137/3/2
f 136/2/2 127/2/2 137/2/2
f 128/5/2 129/5/2 138/5/2
f 137/3/2 128/3/2 138/3/2
f 129/1/2 130/1/2 139/1/2
f 138/5/2 129/5/2 139/5/2
f 130/2/2 131/2/2 140/2/2
f 139/1/2 130/1/2 140/1/2
f 131/2/2 132/2/2 140/2/2
f 132/2/2 133/2/2 140/2/2
f 140/2/2 133/2/2 141/2/2
f 150/4/3 144/4/3 143/4/3
f 150/6/3 145/6/3 144/6/3
f 151/1/3 146/1/3 145/1/3
f 151/6/3 145/6/3 150/6/3
f 152/1/3 146/1/3 151/1/3
f 153/2/3 147/2/3 146/2/3
f 153/1/3 146/1/3 152/1/3
f 154/1/3 148/1/3 147/1/3
f 154/2/3 147/2/3 153/2/3
f 155/2/3 149/2/3 148/2/3
f 155/1/3 148/1/3 154/1/3
f 156/2/3 149/2/3 155/2/3
f 157/2/3 149/2/3 156/2/3
f 158/2/3 152/2/3 151/2/3
f 158/4/3 151/4/3 150/4/3
f 159/4/3 153/4/3 152/4/3
f 159/2/3 152/2/3 158/2/3
f 160/6/3 154/6/3 153/6/3
f 160/4/3 153/4/3 159/4/3
f 161/3/3 155/3/3 154/3/3
f 161/6/3 154/6/3 160/6/3
f 162/2/3 156/2/3 155/2/3
f 162/3/3 155/3/3 161/3/3
f 163/1/3 157/1/3 156/1/3
f 163/2/3 156/2/3 162/2/3
f 164/1/3 157/1/3 163/1/3
f 165/4/3 159/4/3 158/4/3
f 165/4/3 158/4/3 150/4/3
f 166/6/3 160/6/3 159/6/3
f 166/4/3 159/4/3 165/4/3
f 167/1/3 162/1/3 161/1/3
f 167/6/3 160/6/3 166/6/3
f 167/1/3 161/1/3 160/1/3
f 168/1/3 162/1/3 167/1/3
f 169/2/3 164/2/3 163/2/3
f 169/1/3 162/1/3 168/1/3
f 169/2/3 163/2/3 162/2/3
f 170/2/3 164/2/3 169/2/3
f 171/6/3 166/6/3 165/6/3
f 171/4/3 165/4/3 150/4/3
f 172/1/3 167/1/3 166/1/3
f 172/6/3 166/6/3 171/6/3
f 173/6/3 168/6/3 167/6/3
f 173/1/3 167/1/3 172/1/3
f 174/1/3 170/1/3 169/1/3
f 174/6/3 168/6/3 173/6/3
f 174/1/3 169/1/3 168/1/3
f 175/2/3 164/2/3 170/2/3
f 175/1/3 170/1/3 174/1/3
f 176/2/3 164/2/3 175/2/3
f 177/4/3 172/4/3 171/4/3
f 177/4/3 171/4/3 150/4/3
f 178/6/3 173/6/3 172/6/3
f 178/4/3 172/4/3 177/4/3
f 179/1/3 174/1/3 173/1/3
f 179/6/3 173/6/3 178/6/3
f 180/2/3 175/2/3 174/2/3
f 180/1/3 174/1/3 179/1/3
f 181/2/3 175/2/3 180/2/3
f 182/5/3 176/5/3 175/5/3
f 182/2/3 175/2/3 181/2/3
f 183/5/3 176/5/3 182/5/3
f 184/2/3 178/2/3 177/2/3
f 184/4/3 177/4/3 150/4/3
f 185/4/3 179/4/3 178/4/3
f 185/2/3 178/2/3 184/2/3
f 186/6/3 181/6/3 180/6/3
f 186/4/3 179/4/3 185/4/3
f 186/6/3 180/6/3 179/6/3
f 187/6/3 181/6/3 186/6/3
f 188/2/3 182/2/3 181/2/3
f 188/6/3 181/6/3 187/6/3
f 189/3/3 183/3/3 182/3/3
f 189/2/3 182/2/3 188/2/3
f 190/3/3 183/3/3 189/3/3
f 191/6/3 187/6/3 186/6/3
f 191/1/3 186/1/3 185/1/3
f 192/1/3 188/1/3 187/1/3
f 192/6/3 187/6/3 191/6/3
f 193/2/3 190/2/3 189/2/3
f 193/1/3 188/1/3 192/1/3
f 193/2/3 189/2/3 188/2/3
f 194/2/3 190/2/3 193/2/3
f 195/2/3 190/2/3 194/2/3
f 196/6/3 185/6/3 184/6/3
f 196/4/3 184/4/3 150/4/3
f 197/1/3 191/1/3 185/1/3
f 197/6/3 185/6/3 196/6/3
f 198/2/3 192/2/3 191/2/3
f 198/1/3 191/1/3 197/1/3
f 199/3/3 193/3/3 192/3/3
f 199/2/3 192/2/3 198/2/3
f 200/2/3 194/2/3 193/2/3
f 200/3/3 193/3/3 199/3/3
f 201/4/3 150/4/3 143/4/3
f 201/4/3 196/4/3 150/4/3
f 201/4/3 197/4/3 196/4/3
f 201/4/3 198/4/3 197/4/3
f 202/4/3 198/4/3 201/4/3
f 203/6/3 199/6/3 198/6/3
f 203/4/3 198/4/3 202/4/3
f 204/1/3 200/1/3 199/1/3
f 204/6/3 199/6/3 203/6/3
f 205/2/3 194/2/3 200/2/3
f 205/1/3 195/1/3 194/1/3
f 206/1/3 195/1/3 205/1/3
f 207/6/3 143/6/3 142/6/3
f 208/4/3 201/4/3 143/4/3
f 208/6/3 143/6/3 207/6/3
f 209/6/3 202/6/3 201/6/3
f 209/4/3 201/4/3 208/4/3
f 210/1/3 203/1/3 202/1/3
f 210/6/3 202/6/3 209/6/3
f 210/1/3 204/1/3 203/1/3
f 211/1/3 200/1/3 204/1/3
f 211/1/3 204/1/3 210/1/3
f 211/2/3 205/2/3 200/2/3
f 212/3/3 206/3/3 205/3/3
f 212/2/3 205/2/3 211/2/3
f 213/3/3 206/3/3 212/3/3
f 215/4/4 216/4/4 221/4/4
f 216/6/4 217/6/4 221/6/4
f 217/1/4 218/1/4 222/1/4
f 221/6/4 217/6/4 222/6/4
f 218/2/4 219/2/4 223/2/4
f 222/1/4 218/1/4 223/1/4
f 223/2/4 219/2/4 224/2/4
f 219/1/4 220/1/4 225/1/4
f 224/2/4 219/2/4 225/2/4
f 225/1/4 220/1/4 226/1/4
f 221/4/4 222/4/4 227/4/4
f 222/6/4 223/6/4 227/6/4
f 227/6/4 223/6/4 228/6/4
f 223/1/4 224/1/4 229/1/4
f 228/6/4 223/6/4 229/6/4
f 225/2/4 226/2/4 230/2/4
f 229/1/4 224/1/4 230/1/4
f 224/2/4 225/2/4 230/2/4
f 227/4/4 228/4/4 231/4/4
f 215/4/4 221/4/4 231/4/4
f 221/4/4 227/4/4 231/4/4
f 231/4/4 228/4/4 232/4/4
f 228/2/4 229/2/4 233/2/4
f 232/4/4 228/4/4 233/4/4
f 229/6/4 230/6/4 234/6/4
f 233/2/4 229/2/4 234/2/4
f 230/2/4 226/2/4 235/2/4
f 234/6/4 230/6/4 235/6/4
f 235/2/4 226/2/4 236/2/4
f 236/2/4 226/2/4 237/2/4
f 231/2/4 232/2/4 238/2/4
f 215/4/4 231/4/4 238/4/4
f 233/6/4 234/6/4 239/6/4
f 238/2/4 232/2/4 239/2/4
f 232/6/4 233/6/4 239/6/4
f 234/2/4 235/2/4 240/2/4
f 239/6/4 234/6/4 240/6/4
f 235/3/4 236/3/4 241/3/4
f 240/2/4 235/2/4 241/2/4
f 236/1/4 237/1/4 242/1/4
f 241/3/4 236/3/4 242/3/4
f 242/1/4 237/1/4 243/1/4
f 215/4/4 238/4/4 244/4/4
f 238/6/4 239/6/4 244/6/4
f 239/1/4 240/1/4 245/1/4
f 244/6/4 239/6/4 245/6/4
f 245/1/4 240/1/4 246/1/4
f 240/2/4 241/2/4 247/2/4
f 246/1/4 240/1/4 247/1/4
f 241/2/4 242/2/4 247/2/4
f 247/2/4 242/2/4 248/2/4
f 242/3/4 243/3/4 249/3/4
f 248/2/4 242/2/4 249/2/4
f 249/3/4 243/3/4 250/3/4
f 215/4/4 244/4/4 251/4/4
f 245/4/4 246/4/4 251/4/4
f 244/4/4 245/4/4 251/4/4
f 246/6/4 247/6/4 252/6/4
f 251/4/4 246/4/4 252/4/4
f 247/1/4 248/1/4 253/1/4
f 252/6/4 247/6/4 253/6/4
f 248/2/4 249/2/4 254/2/4
f 253/1/4 248/1/4 254/1/4
f 249/1/4 250/1/4 255/1/4
f 254/2/4 249/2/4 255/2/4
f 255/1/4 250/1/4 256/1/4
f 251/6/4 252/6/4 257/6/4
f 215/4/4 251/4/4 257/4/4
f 257/6/4 252/6/4 258/6/4
f 253/6/4 254/6/4 259/6/4
f 252/1/4 253/1/4 259/1/4
f 254/1/4 255/1/4 260/1/4
f 259/6/4 254/6/4 260/6/4
f 255/5/4 256/5/4 261/5/4
f 260/1/4 255/1/4 261/1/4
f 261/5/4 256/5/4 262/5/4
f 258/6/4 252/6/4 263/6/4
f 257/4/4 258/4/4 263/4/4
f 252/1/4 259/1/4 264/1/4
f 263/6/4 252/6/4 264/6/4
f 259/2/4 260/2/4 265/2/4
f 264/1/4 259/1/4 265/1/4
f 260/2/4 261/2/4 265/2/4
f 265/2/4 261/2/4 266/2/4
f 261/3/4 262/3/4 267/3/4
f 266/2/4 261/2/4 267/2/4
f 267/3/4 262/3/4 268/3/4
f 257/4/4 263/4/4 269/4/4
f 215/4/4 257/4/4 269/4/4
f 263/2/4 264/2/4 270/2/4
f 269/4/4 263/4/4 270/4/4
f 264/6/4 265/6/4 271/6/4
f 270/2/4 264/2/4 271/2/4
f 265/3/4 266/3/4 272/3/4
f 271/6/4 265/6/4 272/6/4
f 267/2/4 268/2/4 273/2/4
f 272/3/4 266/3/4 273/3/4
f 266/2/4 267/2/4 273/2/4
f 273/2/4 268/2/4 274/2/4
f 214/6/4 215/6/4 275/6/4
f 215/4/4 269/4/4 276/4/4
f 275/6/4 215/6/4 276/6/4
f 269/6/4 270/6/4 277/6/4
f 276/4/4 269/4/4 277/4/4
f 270/1/4 271/1/4 278/1/4
f 277/6/4 270/6/4 278/6/4
f 271/1/4 272/1/4 278/1/4
f 273/1/4 274/1/4 278/1/4
f 272/1/4 273/1/4 278/1/4
f 274/2/4 268/2/4 279/2/4
f 278/1/4 274/1/4 279/1/4
f 279/2/4 268/2/4 280/2/4
f 283/6/5 282/6/5 281/6/5
f 284/6/5 282/6/5 283/6/5
f 285/6/5 283/6/5 281/6/5
f 285/4/5 284/4/5 283/4/5
f 286/6/5 282/6/5 284/6/5
f 286/4/5 284/4/5 285/4/5
f 287/6/5 285/6/5 281/6/5
f 287/6/5 286/6/5 285/6/5
f 288/6/5 282/6/5 286/6/5
f 288/6/5 286/6/5 287/6/5
f 289/2/6 290/2/6 298/2/6
f 290/1/6 291/1/6 299/1/6
f 298/2/6 290/2/6 299/2/6
f 291/2/6 292/2/6 300/2/6
f 292/5/6 293/5/6 301/5/6
f 300/2/6 292/2/6 301/2/6
f 293/3/6 294/3/6 302/3/6
f 301/5/6 293/5/6 302/5/6
f 294/2/6 295/2/6 303/2/6
f 302/3/6 294/3/6 303/3/6
f 295/1/6 296/1/6 304/1/6
f 303/2/6 295/2/6 304/2/6
f 296/3/6 297/3/6 305/3/6
f 304/1/6 296/1/6 305/1/6
f 305/3/6 297/3/6 306/3/6
f 298/3/6 299/3/6 307/3/6
f 299/1/6 291/1/6 308/1/6
f 307/3/6 299/3/6 308/3/6
f 291/2/6 300/2/6 309/2/6
f 308/1/6 291/1/6 309/1/6
f 300/1/6 301/1/6 310/1/6
f 309/2/6 300/2/6 310/2/6
f 301/2/6 302/2/6 311/2/6
f 310/1/6 301/1/6 311/1/6
f 302/1/6 303/1/6 312/1/6
f 311/2/6 302/2/6 312/2/6
f 303/2/6 304/2/6 313/2/6
f 312/1/6 303/1/6 313/1/6
f 304/2/6 305/2/6 313/2/6
f 313/2/6 305/2/6 314/2/6
f 305/5/6 306/5/6 315/5/6
f 314/2/6 305/2/6 315/2/6
f 315/5/6 306/5/6 316/5/6
f 307/1/6 308/1/6 317/1/6
f 311/2/6 312/2/6 318/2/6
f 317/1/6 308/1/6 318/1/6
f 308/2/6 309/2/6 318/2/6
f 309/2/6 310/2/6 318/2/6
f 310/2/6 311/2/6 318/2/6
f 312/2/6 313/2/6 318/2/6
f 313/2/6 314/2/6 318/2/6
f 318/2/6 314/2/6 319/2/6
f 319/2/6 314/2/6 320/2/6
f 320/2/6 314/2/6 321/2/6
f 321/2/6 314/2/6 322/2/6
f 322/2/6 314/2/6 323/2/6
f 314/1/6 315/1/6 324/1/6
f 323/2/6 314/2/6 324/2/6
f 317/2/6 318/2/6 325/2/6
f 318/1/6 319/1/6 325/1/6
f 319/2/6 320/2/6 326/2/6
f 325/1/6 319/1/6 326/1/6
f 326/2/6 320/2/6 327/2/6
f 320/1/6 321/1/6 328/1/6
f 327/2/6 320/2/6 328/2/6
f 321/3/6 322/3/6 329/3/6
f 328/1/6 321/1/6 329/1/6
f 322/5/6 323/5/6 330/5/6
f 329/3/6 322/3/6 330/3/6
f 323/1/6 324/1/6 331/1/6
f 330/5/6 323/5/6 331/5/6
f 324/1/6 315/1/6 332/1/6
f 331/1/6 324/1/6 332/1/6
f 315/2/6 316/2/6 333/2/6
f 332/1/6 315/1/6 333/1/6
f 333/2/6 316/2/6 334/2/6
f 317/2/6 325/2/6 335/2/6
f 326/2/6 327/2/6 335/2/6
f 325/2/6 326/2/6 335/2/6
f 335/2/6 327/2/6 336/2/6
f 336/2/6 327/2/6 337/2/6
f 327/1/6 328/1/6 338/1/6
f 337/2/6 327/2/6 338/2/6
f 328/2/6 329/2/6 339/2/6
f 338/1/6 328/1/6 339/1/6
f 329/1/6 330/1/6 340/1/6
f 339/2/6 329/2/6 340/2/6
f 330/2/6 331/2/6 341/2/6
f 340/1/6 330/1/6 341/1/6
f 331/3/6 332/3/6 342/3/6
f 341/2/6 331/2/6 342/2/6
f 332/1/6 333/1/6 343/1/6
f 342/3/6 332/3/6 343/3/6
f 333/3/6 334/3/6 344/3/6
f 343/1/6 333/1/6 344/1/6
f 344/3/6 334/3/6 345/3/6
f 335/1/6 336/1/6 346/1/6
f 336/2/6 337/2/6 347/2/6
f 346/1/6 336/1/6 347/1/6
f 337/1/6 338/1/6 348/1/6
f 347/2/6 337/2/6 348/2/6
f 338/5/6 339/5/6 349/5/6
f 348/1/6 338/1/6 349/1/6
f 340/2/6 341/2/6 350/2/6
f 349/5/6 339/5/6 350/5/6
f 339/2/6 340/2/6 350/2/6
f 342/2/6 343/2/6 350/2/6
f 343/2/6 344/2/6 350/2/6
f 341/2/6 342/2/6 350/2/6
f 350/2/6 344/2/6 351/2/6
f 351/2/6 344/2/6 352/2/6
f 352/2/6 344/2/6 353/2/6
f 353/2/6 344/2/6 354/2/6
f 344/5/6 345/5/6 355/5/6
f 354/2/6 344/2/6 355/2/6
f 355/5/6 345/5/6 356/5/6
f 346/3/6 347/3/6 357/3/6
f 347/5/6 348/5/6 358/5/6
f 357/3/6 347/3/6 358/3/6
f 348/2/6 349/2/6 359/2/6
f 358/5/6 348/5/6 359/5/6
f 349/3/6 350/3/6 360/3/6
f 359/2/6 349/2/6 360/2/6
f 350/2/6 351/2/6 361/2/6
f 360/3/6 350/3/6 361/3/6
f 351/3/6 352/3/6 362/3/6
f 361/2/6 351/2/6 362/2/6
f 352/2/6 353/2/6 363/2/6
f 362/3/6 352/3/6 363/3/6
f 353/1/6 354/1/6 364/1/6
f 363/2/6 353/2/6 364/2/6
f 354/2/6 355/2/6 365/2/6
f 364/1/6 354/1/6 365/1/6
f 355/1/6 356/1/6 366/1/6
f 365/2/6 355/2/6 366/2/6
f 366/1/6 356/1/6 367/1/6
f 357/2/6 358/2/6 368/2/6
f 358/3/6 359/3/6 368/3/6
f 359/1/6 360/1/6 369/1/6
f 368/3/6 359/3/6 369/3/6
f 362/2/6 363/2/6 370/2/6
f 369/1/6 360/1/6 370/1/6
f 360/2/6 361/2/6 370/2/6
f 361/2/6 362/2/6 370/2/6
f 370/2/6 363/2/6 371/2/6
f 366/2/6 367/2/6 372/2/6
f 365/2/6 366/2/6 372/2/6
f 364/2/6 365/2/6 372/2/6
f 372/2/6 367/2/6 373/2/6
f 357/2/6 368/2/6 374/2/6
f 368/1/6 369/1/6 375/1/6
f 374/2/6 368/2/6 375/2/6
f 369/2/6 370/2/6 376/2/6
f 375/1/6 369/1/6 376/1/6
f 371/2/6 363/2/6 377/2/6
f 370/1/6 371/1/6 377/1/6
f 377/2/6 363/2/6 378/2/6
f 363/1/6 364/1/6 379/1/6
f 378/2/6 363/2/6 379/2/6
f 364/2/6 372/2/6 380/2/6
f 379/1/6 364/1/6 380/1/6
f 372/1/6 373/1/6 381/1/6
f 380/2/6 372/2/6 381/2/6
f 373/2/6 367/2/6 382/2/6
f 381/1/6 373/1/6 382/1/6
f 374/1/6 375/1/6 383/1/6
f 375/2/6 376/2/6 384/2/6
f 383/1/6 375/1/6 384/1/6
f 376/2/6 370/2/6 385/2/6
f 384/2/6 376/2/6 385/2/6
f 370/1/6 377/1/6 385/1/6
f 377/3/6 378/3/6 386/3/6
f 385/1/6 377/1/6 386/1/6
f 378/1/6 379/1/6 387/1/6
f 386/3/6 378/3/6 387/3/6
f 379/5/6 380/5/6 388/5/6
f 387/1/6 379/1/6 388/1/6
f 380/3/6 381/3/6 389/3/6
f 388/5/6 380/5/6 389/5/6
f 381/2/6 382/2/6 390/2/6
f 389/3/6 381/3/6 390/3/6
f 382/2/6 367/2/6 391/2/6
f 390/2/6 382/2/6 391/2/6
