# MagicaVoxel @ Ephtracy

# group
o 

# material
mtllib Ronell.mtl
usemtl palette

# normals
vn -1 0 0
vn 1 0 0
vn 0 0 1
vn 0 0 -1
vn 0 -1 0
vn 0 1 0

# texcoords
vt 0.0292969 0.5
vt 0.0371094 0.5
vt 0.0410156 0.5
vt 0.0527344 0.5
vt 0.0566406 0.5
vt 0.0605469 0.5
vt 0.0644531 0.5
vt 0.0683594 0.5
vt 0.0800781 0.5
vt 0.0839844 0.5
vt 0.0917969 0.5
vt 0.138672 0.5
vt 0.208984 0.5
vt 0.216797 0.5
vt 0.251953 0.5
vt 0.419922 0.5
vt 0.994141 0.5

# verts
v -0.7 0.6 0.1
v -0.7 0.6 0
v -0.7 0.6 -0.1
v -0.7 0.6 -0.3
v -0.7 0.7 0.1
v -0.7 0.7 0
v -0.7 0.7 -0.1
v -0.7 0.7 -0.3
v -0.6 0.5 -0.2
v -0.6 0.5 -0.3
v -0.6 0.6 0.3
v -0.6 0.6 0.1
v -0.6 0.6 -0.2
v -0.6 0.6 -0.3
v -0.6 0.7 0.3
v -0.6 0.7 0.2
v -0.6 0.7 0.1
v -0.6 0.7 0
v -0.6 0.7 -0.1
v -0.6 0.7 -0.3
v -0.6 0.9 -0.2
v -0.6 0.9 -0.3
v -0.6 1 0.2
v -0.6 1 0.1
v -0.6 1.1 -0.1
v -0.6 1.1 -0.2
v -0.6 1.2 0.1
v -0.6 1.2 -0.1
v -0.5 0.5 0.1
v -0.5 0.5 -0.1
v -0.5 0.5 -0.3
v -0.5 0.5 -0.4
v -0.5 0.6 0.1
v -0.5 0.6 0
v -0.5 0.6 -0.1
v -0.5 0.7 0.3
v -0.5 0.7 0.2
v -0.5 0.7 0
v -0.5 0.7 -0.1
v -0.5 0.7 -0.4
v -0.5 0.7 -0.5
v -0.5 0.8 -0.4
v -0.5 0.8 -0.5
v -0.5 0.9 -0.2
v -0.5 0.9 -0.3
v -0.5 1 0.3
v -0.5 1 0.2
v -0.5 1 0.1
v -0.5 1 -0.3
v -0.5 1 -0.4
v -0.5 1.1 -0.1
v -0.5 1.1 -0.2
v -0.5 1.2 0.3
v -0.5 1.2 0.2
v -0.5 1.2 0.1
v -0.5 1.2 -0.1
v -0.5 1.5 0.3
v -0.5 1.5 0.2
v -0.5 1.5 -0.2
v -0.5 1.5 -0.3
v -0.5 1.6 0.2
v -0.5 1.6 0.1
v -0.5 1.6 -0.1
v -0.5 1.6 -0.2
v -0.5 1.7 0.1
v -0.5 1.7 -0.1
v -0.4 0.3 0.3
v -0.4 0.3 -0.2
v -0.4 0.4 0.3
v -0.4 0.4 0.2
v -0.4 0.4 -0.2
v -0.4 0.4 -0.3
v -0.4 0.5 0.1
v -0.4 0.5 -0.1
v -0.4 0.5 -0.2
v -0.4 0.5 -0.3
v -0.4 0.6 0.2
v -0.4 0.6 0.1
v -0.4 0.6 -0.1
v -0.4 0.6 -0.2
v -0.4 0.7 0.5
v -0.4 0.7 0.4
v -0.4 0.8 0.4
v -0.4 0.8 0.3
v -0.4 0.8 0.1
v -0.4 0.8 -0.1
v -0.4 0.8 -0.4
v -0.4 0.8 -0.5
v -0.4 0.9 0.5
v -0.4 0.9 0.4
v -0.4 0.9 0.1
v -0.4 0.9 -0.1
v -0.4 1 0.3
v -0.4 1 0.2
v -0.4 1 -0.3
v -0.4 1 -0.4
v -0.4 1 -0.5
v -0.4 1.2 0.3
v -0.4 1.2 0.2
v -0.4 1.3 0.5
v -0.4 1.3 0.4
v -0.4 1.4 0.5
v -0.4 1.4 0.4
v -0.4 1.5 0.3
v -0.4 1.5 0.2
v -0.4 1.5 -0.2
v -0.4 1.5 -0.3
v -0.4 1.6 0.2
v -0.4 1.6 0.1
v -0.4 1.6 -0.1
v -0.4 1.6 -0.2
v -0.4 1.6 -0.3
v -0.4 1.6 -0.4
v -0.4 1.7 0.4
v -0.4 1.7 0.3
v -0.4 1.7 0.1
v -0.4 1.7 -0.1
v -0.4 1.7 -0.2
v -0.4 1.7 -0.3
v -0.4 1.8 0.3
v -0.4 1.8 -0.2
v -0.3 0 0.2
v -0.3 0 0
v -0.3 0.1 0.2
v -0.3 0.1 0
v -0.3 0.2 0.2
v -0.3 0.2 0
v -0.3 0.3 0.4
v -0.3 0.3 0.3
v -0.3 0.3 0.2
v -0.3 0.3 0
v -0.3 0.3 -0.2
v -0.3 0.3 -0.3
v -0.3 0.4 0.4
v -0.3 0.4 0.3
v -0.3 0.4 0.2
v -0.3 0.4 -0.2
v -0.3 0.4 -0.3
v -0.3 0.5 0.4
v -0.3 0.5 0.3
v -0.3 0.5 -0.2
v -0.3 0.5 -0.3
v -0.3 0.5 -0.4
v -0.3 0.6 0.5
v -0.3 0.6 0.3
v -0.3 0.6 0.2
v -0.3 0.6 0.1
v -0.3 0.6 -0.1
v -0.3 0.6 -0.2
v -0.3 0.6 -0.3
v -0.3 0.6 -0.4
v -0.3 0.6 -0.5
v -0.3 0.7 0.5
v -0.3 0.7 0.4
v -0.3 0.7 -0.2
v -0.3 0.7 -0.3
v -0.3 0.8 0.4
v -0.3 0.8 0.3
v -0.3 0.8 0.2
v -0.3 0.8 0.1
v -0.3 0.8 -0.4
v -0.3 0.8 -0.5
v -0.3 0.9 0.2
v -0.3 0.9 0.1
v -0.3 0.9 -0.1
v -0.3 0.9 -0.2
v -0.3 1 0.2
v -0.3 1 0
v -0.3 1 -0.2
v -0.3 1 -0.4
v -0.3 1 -0.5
v -0.3 1.4 0.5
v -0.3 1.4 0.4
v -0.3 1.4 -0.4
v -0.3 1.4 -0.5
v -0.3 1.6 0.5
v -0.3 1.6 0.4
v -0.3 1.6 -0.3
v -0.3 1.6 -0.4
v -0.3 1.7 0.4
v -0.3 1.7 0.3
v -0.3 1.7 -0.2
v -0.3 1.7 -0.3
v -0.3 1.7 -0.4
v -0.3 1.8 0.4
v -0.3 1.8 0.3
v -0.3 1.8 0.2
v -0.3 1.8 -0.2
v -0.3 1.8 -0.3
v -0.3 1.9 0.2
v -0.3 1.9 -0.2
v -0.2 0.5 0.4
v -0.2 0.5 0.3
v -0.2 0.6 0.4
v -0.2 0.6 0.3
v -0.2 0.6 0.2
v -0.2 0.7 -0.2
v -0.2 0.7 -0.3
v -0.2 0.8 0.3
v -0.2 0.8 0.2
v -0.2 0.8 -0.4
v -0.2 0.8 -0.5
v -0.2 0.9 0.3
v -0.2 0.9 0.2
v -0.2 0.9 -0.2
v -0.2 0.9 -0.4
v -0.2 0.9 -0.5
v -0.2 1 0.3
v -0.2 1 0.2
v -0.2 1 -0.2
v -0.2 1 -0.3
v -0.2 1.1 0.2
v -0.2 1.1 -0.2
v -0.2 1.4 -0.4
v -0.2 1.4 -0.5
v -0.2 1.5 -0.4
v -0.2 1.5 -0.5
v -0.2 1.6 0.5
v -0.2 1.6 0.4
v -0.2 1.7 0.5
v -0.2 1.7 0.4
v -0.2 1.7 -0.3
v -0.2 1.7 -0.4
v -0.2 1.8 0.3
v -0.2 1.8 0.2
v -0.2 1.8 -0.2
v -0.2 1.8 -0.3
v -0.2 1.8 -0.4
v -0.2 1.9 0.3
v -0.2 1.9 0.2
v -0.2 1.9 -0.2
v -0.2 1.9 -0.3
v -0.1 0.6 -0.4
v -0.1 0.6 -0.5
v -0.1 0.7 -0.4
v -0.1 0.7 -0.5
v -0.1 1 -0.2
v -0.1 1 -0.3
v -0.1 1.1 -0.2
v -0.1 1.1 -0.3
v -0.1 1.3 0.4
v -0.1 1.3 0.3
v -0.1 1.4 0.4
v -0.1 1.4 0.3
v -0.1 1.5 -0.4
v -0.1 1.5 -0.5
v -0.1 1.6 -0.4
v -0.1 1.6 -0.5
v -0.1 1.8 0.4
v -0.1 1.8 0.3
v -0.1 1.9 0.4
v -0.1 1.9 0.3
v 0 0.7 -0.4
v 0 0.7 -0.5
v 0 0.9 -0.4
v 0 0.9 -0.5
v 0.1 0 0.2
v 0.1 0 0
v 0.1 0.1 0.2
v 0.1 0.1 0
v 0.1 0.2 0.2
v 0.1 0.2 0
v 0.1 0.3 0.2
v 0.1 0.3 0
v 0.1 0.5 -0.3
v 0.1 0.5 -0.4
v 0.1 0.6 0.1
v 0.1 0.6 0
v 0.1 0.6 -0.3
v 0.1 0.6 -0.4
v 0.1 0.7 0.1
v 0.1 0.7 0
v 0.1 1 0.2
v 0.1 1 0.1
v 0.1 1.1 0.2
v 0.1 1.1 0.1
v 0.2 0.6 0.5
v 0.2 0.6 0.4
v 0.2 0.6 0.3
v 0.2 0.6 -0.4
v 0.2 0.6 -0.5
v 0.2 0.8 0.5
v 0.2 0.8 0.3
v 0.2 0.8 -0.4
v 0.2 0.8 -0.5
v 0.2 1.4 0.5
v 0.2 1.4 0.3
v 0.2 1.5 0.5
v 0.2 1.5 0.4
v 0.2 1.5 0.3
v 0.3 0.8 0.5
v 0.3 0.8 0.3
v 0.3 0.8 0.2
v 0.3 0.9 0.5
v 0.3 0.9 0.4
v 0.3 0.9 0.2
v 0.3 1 0.2
v 0.3 1 -0.2
v 0.3 1 -0.3
v 0.3 1.1 0.3
v 0.3 1.1 0.1
v 0.3 1.1 -0.1
v 0.3 1.1 -0.3
v 0.3 1.2 0.3
v 0.3 1.3 0.5
v 0.3 1.3 0.4
v 0.3 1.3 0.3
v 0.3 1.4 0.5
v 0.3 1.4 0.3
v 0.4 0.5 -0.3
v 0.4 0.5 -0.4
v 0.4 0.6 -0.3
v 0.4 0.6 -0.4
v 0.4 0.7 0.3
v 0.4 0.7 0.1
v 0.4 0.8 0.3
v 0.4 0.8 0.2
v 0.4 0.9 0.1
v 0.4 0.9 -0.1
v 0.4 0.9 -0.3
v 0.4 1 0.2
v 0.4 1 -0.3
v 0.5 0.6 0.3
v 0.5 0.6 0.1
v 0.5 0.6 -0.2
v 0.5 0.6 -0.3
v 0.5 0.7 0.3
v 0.5 0.7 0.1
v 0.5 0.7 -0.1
v 0.5 0.7 -0.2
v 0.5 0.8 0.1
v 0.5 0.8 -0.1
v 0.5 0.9 0.1
v 0.5 0.9 -0.3
v 0.5 1.6 0.3
v 0.5 1.6 0.2
v 0.5 1.7 0.3
v 0.5 1.7 0.2
v -0.5 0.5 -0.2
v -0.5 0.5 -0.3
v -0.5 0.6 0.3
v -0.5 0.6 0.1
v -0.5 0.6 -0.1
v -0.5 0.6 -0.2
v -0.5 0.7 0.3
v -0.5 0.7 0.2
v -0.5 0.8 0.1
v -0.5 0.8 -0.1
v -0.5 0.9 0.2
v -0.5 0.9 -0.3
v -0.4 0.5 -0.3
v -0.4 0.5 -0.4
v -0.4 0.6 -0.3
v -0.4 0.6 -0.4
v -0.4 0.7 0.3
v -0.4 0.7 0.2
v -0.4 0.7 -0.4
v -0.4 0.7 -0.5
v -0.4 0.8 0.3
v -0.4 0.8 -0.4
v -0.4 0.8 -0.5
v -0.4 0.9 0.2
v -0.4 0.9 0.1
v -0.4 0.9 -0.1
v -0.4 0.9 -0.3
v -0.4 1 0.3
v -0.4 1 0.2
v -0.4 1 0
v -0.4 1 -0.3
v -0.4 1.1 0.2
v -0.4 1.1 0
v -0.3 0.8 0.5
v -0.3 0.8 0.3
v -0.3 0.8 -0.4
v -0.3 0.8 -0.5
v -0.3 0.9 0.5
v -0.3 0.9 0.4
v -0.3 0.9 -0.4
v -0.3 0.9 -0.5
v -0.3 1 0.3
v -0.3 1 0.2
v -0.3 1 0
v -0.3 1 -0.2
v -0.3 1 -0.3
v -0.3 1.1 0.3
v -0.3 1.1 0.2
v -0.3 1.1 0
v -0.3 1.1 -0.3
v -0.3 1.2 0.3
v -0.3 1.3 0.4
v -0.3 1.3 0.3
v -0.2 0.6 0.5
v -0.2 0.6 0.4
v -0.2 0.6 0.3
v -0.2 0.6 -0.4
v -0.2 0.6 -0.5
v -0.2 0.8 0.5
v -0.2 0.8 0.3
v -0.2 0.8 -0.4
v -0.2 0.8 -0.5
v -0.2 1.3 0.5
v -0.2 1.3 0.3
v -0.2 1.4 0.5
v -0.2 1.4 0.3
v -0.1 0 0.2
v -0.1 0 0
v -0.1 0.1 0.2
v -0.1 0.1 0
v -0.1 0.2 0.2
v -0.1 0.2 0
v -0.1 0.3 0.2
v -0.1 0.3 0
v -0.1 0.8 -0.4
v -0.1 0.8 -0.5
v -0.1 0.9 -0.4
v -0.1 0.9 -0.5
v -0.1 1 0.2
v -0.1 1 0.1
v -0.1 1.1 0.2
v -0.1 1.1 0.1
v -0.1 1.4 0.5
v -0.1 1.4 0.4
v -0.1 1.5 0.5
v -0.1 1.5 0.4
v 0 0.5 -0.3
v 0 0.5 -0.4
v 0 0.6 0.1
v 0 0.6 0
v 0 0.6 -0.3
v 0 0.6 -0.4
v 0 0.6 -0.5
v 0 0.7 0.1
v 0 0.7 0
v 0 0.7 -0.4
v 0 0.7 -0.5
v 0 1.3 0.4
v 0 1.3 0.3
v 0 1.4 0.4
v 0 1.4 0.3
v 0.1 0.7 -0.4
v 0.1 0.7 -0.5
v 0.1 0.8 -0.4
v 0.1 0.8 -0.5
v 0.1 1 -0.2
v 0.1 1 -0.3
v 0.1 1.1 -0.2
v 0.1 1.1 -0.3
v 0.1 1.4 0.4
v 0.1 1.4 0.3
v 0.1 1.5 0.5
v 0.1 1.5 0.4
v 0.1 1.5 0.3
v 0.1 1.5 -0.4
v 0.1 1.5 -0.5
v 0.1 1.6 -0.4
v 0.1 1.6 -0.5
v 0.1 1.7 0.5
v 0.1 1.7 0.4
v 0.1 1.8 0.4
v 0.1 1.8 0.3
v 0.1 1.9 0.4
v 0.1 1.9 0.3
v 0.2 0.5 0.4
v 0.2 0.5 0.3
v 0.2 0.6 0.4
v 0.2 0.6 0.3
v 0.2 0.6 0.2
v 0.2 0.7 -0.2
v 0.2 0.7 -0.3
v 0.2 0.8 0.3
v 0.2 0.8 0.2
v 0.2 0.9 0.3
v 0.2 0.9 0.2
v 0.2 0.9 -0.2
v 0.2 1 0.3
v 0.2 1 0.2
v 0.2 1 -0.2
v 0.2 1 -0.3
v 0.2 1.1 0.2
v 0.2 1.1 0.1
v 0.2 1.1 -0.1
v 0.2 1.1 -0.2
v 0.2 1.4 -0.4
v 0.2 1.4 -0.5
v 0.2 1.5 -0.4
v 0.2 1.5 -0.5
v 0.2 1.7 -0.3
v 0.2 1.7 -0.4
v 0.2 1.8 0.3
v 0.2 1.8 0.2
v 0.2 1.8 -0.2
v 0.2 1.8 -0.3
v 0.2 1.8 -0.4
v 0.2 1.9 0.3
v 0.2 1.9 0.2
v 0.2 1.9 -0.2
v 0.2 1.9 -0.3
v 0.3 0 0.2
v 0.3 0 0
v 0.3 0.1 0.2
v 0.3 0.1 0
v 0.3 0.2 0.2
v 0.3 0.2 0
v 0.3 0.3 0.4
v 0.3 0.3 0.3
v 0.3 0.3 0.2
v 0.3 0.3 0
v 0.3 0.3 -0.2
v 0.3 0.3 -0.3
v 0.3 0.4 0.4
v 0.3 0.4 0.3
v 0.3 0.4 0.2
v 0.3 0.4 -0.2
v 0.3 0.4 -0.3
v 0.3 0.5 0.4
v 0.3 0.5 0.3
v 0.3 0.5 -0.2
v 0.3 0.5 -0.3
v 0.3 0.5 -0.4
v 0.3 0.6 0.5
v 0.3 0.6 0.3
v 0.3 0.6 0.2
v 0.3 0.6 0.1
v 0.3 0.6 -0.1
v 0.3 0.6 -0.2
v 0.3 0.6 -0.3
v 0.3 0.6 -0.4
v 0.3 0.6 -0.5
v 0.3 0.7 0.5
v 0.3 0.7 0.3
v 0.3 0.7 -0.2
v 0.3 0.7 -0.3
v 0.3 0.7 -0.4
v 0.3 0.7 -0.5
v 0.3 0.8 0.2
v 0.3 0.8 0.1
v 0.3 0.9 0.2
v 0.3 0.9 0.1
v 0.3 0.9 -0.1
v 0.3 0.9 -0.2
v 0.3 0.9 -0.4
v 0.3 0.9 -0.5
v 0.3 1 0.2
v 0.3 1 -0.2
v 0.3 1.4 0.5
v 0.3 1.4 0.4
v 0.3 1.4 -0.4
v 0.3 1.4 -0.5
v 0.3 1.5 0.5
v 0.3 1.5 0.4
v 0.3 1.6 -0.3
v 0.3 1.6 -0.4
v 0.3 1.7 0.4
v 0.3 1.7 0.3
v 0.3 1.7 -0.2
v 0.3 1.7 -0.3
v 0.3 1.7 -0.4
v 0.3 1.8 0.4
v 0.3 1.8 0.3
v 0.3 1.8 0.2
v 0.3 1.8 -0.2
v 0.3 1.8 -0.3
v 0.3 1.9 0.2
v 0.3 1.9 -0.2
v 0.4 0.3 0.3
v 0.4 0.3 -0.2
v 0.4 0.4 0.3
v 0.4 0.4 0.2
v 0.4 0.4 -0.2
v 0.4 0.4 -0.3
v 0.4 0.5 0.1
v 0.4 0.5 -0.1
v 0.4 0.5 -0.2
v 0.4 0.5 -0.3
v 0.4 0.6 0.2
v 0.4 0.6 0.1
v 0.4 0.6 -0.1
v 0.4 0.6 -0.2
v 0.4 0.7 0.5
v 0.4 0.7 0.3
v 0.4 0.7 -0.4
v 0.4 0.7 -0.5
v 0.4 0.8 0.1
v 0.4 0.8 -0.1
v 0.4 0.9 0.5
v 0.4 0.9 0.4
v 0.4 0.9 0.3
v 0.4 0.9 0.2
v 0.4 0.9 0.1
v 0.4 0.9 -0.1
v 0.4 0.9 -0.4
v 0.4 0.9 -0.5
v 0.4 1 -0.3
v 0.4 1 -0.4
v 0.4 1.2 0.3
v 0.4 1.2 0.2
v 0.4 1.3 0.5
v 0.4 1.3 0.4
v 0.4 1.4 0.5
v 0.4 1.4 0.4
v 0.4 1.5 0.3
v 0.4 1.5 -0.2
v 0.4 1.5 -0.3
v 0.4 1.6 0.3
v 0.4 1.6 0.2
v 0.4 1.6 -0.2
v 0.4 1.6 -0.3
v 0.4 1.6 -0.4
v 0.4 1.7 0.4
v 0.4 1.7 0.3
v 0.4 1.7 -0.2
v 0.4 1.7 -0.3
v 0.4 1.8 0.3
v 0.4 1.8 -0.2
v 0.5 0.5 0.1
v 0.5 0.5 -0.1
v 0.5 0.6 0.1
v 0.5 0.6 -0.1
v 0.5 0.6 -0.3
v 0.5 0.6 -0.4
v 0.5 0.7 0.3
v 0.5 0.7 0.2
v 0.5 0.8 0.2
v 0.5 0.8 0.1
v 0.5 0.9 0.3
v 0.5 0.9 0.2
v 0.5 0.9 -0.2
v 0.5 0.9 -0.3
v 0.5 1 -0.3
v 0.5 1 -0.4
v 0.5 1.1 0.1
v 0.5 1.1 0
v 0.5 1.1 -0.1
v 0.5 1.1 -0.2
v 0.5 1.2 0.3
v 0.5 1.2 0.2
v 0.5 1.2 0
v 0.5 1.2 -0.1
v 0.5 1.5 0.3
v 0.5 1.5 0.2
v 0.5 1.5 -0.2
v 0.5 1.5 -0.3
v 0.5 1.6 0.2
v 0.5 1.6 -0.2
v 0.6 0.5 -0.3
v 0.6 0.5 -0.4
v 0.6 0.6 0.3
v 0.6 0.6 0.1
v 0.6 0.6 -0.2
v 0.6 0.6 -0.3
v 0.6 0.6 -0.4
v 0.6 0.7 0.3
v 0.6 0.7 0.2
v 0.6 0.7 0.1
v 0.6 0.7 -0.1
v 0.6 0.7 -0.2
v 0.6 0.8 0.2
v 0.6 0.8 0.1
v 0.6 0.9 -0.2
v 0.6 0.9 -0.3
v 0.6 1.1 0.1
v 0.6 1.1 0
v 0.6 1.1 -0.1
v 0.6 1.1 -0.2
v 0.6 1.2 0
v 0.6 1.2 -0.1
v 0.6 1.5 0.3
v 0.6 1.5 0.2
v 0.6 1.7 0.3
v 0.6 1.7 0.2
v 0.7 0.6 0.1
v 0.7 0.6 -0.1
v 0.7 0.7 0.1
v 0.7 0.7 -0.1
v -0.4 0.7 0.5
v -0.4 0.9 0.5
v -0.4 1.3 0.5
v -0.4 1.4 0.5
v -0.3 0.6 0.5
v -0.3 0.7 0.5
v -0.3 0.8 0.5
v -0.3 0.9 0.5
v -0.3 1.4 0.5
v -0.3 1.6 0.5
v -0.2 0.6 0.5
v -0.2 0.8 0.5
v -0.2 1.3 0.5
v -0.2 1.4 0.5
v -0.2 1.6 0.5
v -0.2 1.7 0.5
v -0.1 1.4 0.5
v -0.1 1.5 0.5
v 0.1 1.5 0.5
v 0.1 1.7 0.5
v 0.2 0.6 0.5
v 0.2 0.8 0.5
v 0.2 1.4 0.5
v 0.2 1.5 0.5
v 0.3 0.6 0.5
v 0.3 0.7 0.5
v 0.3 0.8 0.5
v 0.3 0.9 0.5
v 0.3 1.3 0.5
v 0.3 1.4 0.5
v 0.3 1.5 0.5
v 0.4 0.7 0.5
v 0.4 0.9 0.5
v 0.4 1.3 0.5
v 0.4 1.4 0.5
v -0.4 0.9 0.4
v -0.4 1.3 0.4
v -0.4 1.4 0.4
v -0.4 1.7 0.4
v -0.3 0.3 0.4
v -0.3 0.4 0.4
v -0.3 0.5 0.4
v -0.3 0.9 0.4
v -0.3 1.3 0.4
v -0.3 1.4 0.4
v -0.3 1.6 0.4
v -0.3 1.7 0.4
v -0.3 1.8 0.4
v -0.2 0.5 0.4
v -0.2 0.6 0.4
v -0.2 1.6 0.4
v -0.2 1.7 0.4
v -0.1 1.3 0.4
v -0.1 1.4 0.4
v -0.1 1.5 0.4
v -0.1 1.8 0.4
v -0.1 1.9 0.4
v 0 0.4 0.4
v 0 0.5 0.4
v 0 1.3 0.4
v 0 1.4 0.4
v 0.1 0.4 0.4
v 0.1 0.5 0.4
v 0.1 1.4 0.4
v 0.1 1.5 0.4
v 0.1 1.7 0.4
v 0.1 1.8 0.4
v 0.1 1.9 0.4
v 0.2 0.5 0.4
v 0.2 0.6 0.4
v 0.2 1.5 0.4
v 0.3 0.3 0.4
v 0.3 0.4 0.4
v 0.3 0.5 0.4
v 0.3 0.9 0.4
v 0.3 1.3 0.4
v 0.3 1.4 0.4
v 0.3 1.5 0.4
v 0.3 1.7 0.4
v 0.3 1.8 0.4
v 0.4 0.9 0.4
v 0.4 1.3 0.4
v 0.4 1.4 0.4
v 0.4 1.7 0.4
v -0.6 0.6 0.3
v -0.6 0.7 0.3
v -0.5 0.6 0.3
v -0.5 0.7 0.3
v -0.5 1 0.3
v -0.5 1.2 0.3
v -0.5 1.5 0.3
v -0.4 0.3 0.3
v -0.4 0.4 0.3
v -0.4 0.7 0.3
v -0.4 0.8 0.3
v -0.4 1 0.3
v -0.4 1.2 0.3
v -0.4 1.5 0.3
v -0.4 1.7 0.3
v -0.4 1.8 0.3
v -0.3 0.3 0.3
v -0.3 0.4 0.3
v -0.3 0.5 0.3
v -0.3 0.6 0.3
v -0.3 1.1 0.3
v -0.3 1.2 0.3
v -0.3 1.3 0.3
v -0.3 1.7 0.3
v -0.3 1.8 0.3
v -0.2 0.5 0.3
v -0.2 0.6 0.3
v -0.2 0.8 0.3
v -0.2 0.9 0.3
v -0.2 1 0.3
v -0.2 1.1 0.3
v -0.2 1.2 0.3
v -0.2 1.3 0.3
v -0.2 1.4 0.3
v -0.2 1.8 0.3
v -0.2 1.9 0.3
v -0.1 0.8 0.3
v -0.1 0.9 0.3
v -0.1 1 0.3
v -0.1 1.1 0.3
v -0.1 1.2 0.3
v -0.1 1.3 0.3
v -0.1 1.4 0.3
v -0.1 1.8 0.3
v -0.1 1.9 0.3
v 0 0.6 0.3
v 0 0.7 0.3
v 0 1.3 0.3
v 0 1.4 0.3
v 0.1 0.6 0.3
v 0.1 0.7 0.3
v 0.1 0.8 0.3
v 0.1 0.9 0.3
v 0.1 1 0.3
v 0.1 1.1 0.3
v 0.1 1.2 0.3
v 0.1 1.3 0.3
v 0.1 1.4 0.3
v 0.1 1.5 0.3
v 0.1 1.8 0.3
v 0.1 1.9 0.3
v 0.2 0.5 0.3
v 0.2 0.6 0.3
v 0.2 0.8 0.3
v 0.2 0.9 0.3
v 0.2 1 0.3
v 0.2 1.1 0.3
v 0.2 1.2 0.3
v 0.2 1.3 0.3
v 0.2 1.4 0.3
v 0.2 1.5 0.3
v 0.2 1.8 0.3
v 0.2 1.9 0.3
v 0.3 0.3 0.3
v 0.3 0.4 0.3
v 0.3 0.5 0.3
v 0.3 0.6 0.3
v 0.3 1.1 0.3
v 0.3 1.2 0.3
v 0.3 1.3 0.3
v 0.3 1.4 0.3
v 0.3 1.7 0.3
v 0.3 1.8 0.3
v 0.4 0.3 0.3
v 0.4 0.4 0.3
v 0.4 0.7 0.3
v 0.4 0.9 0.3
v 0.4 1.2 0.3
v 0.4 1.5 0.3
v 0.4 1.6 0.3
v 0.4 1.7 0.3
v 0.4 1.8 0.3
v 0.5 0.6 0.3
v 0.5 0.7 0.3
v 0.5 0.9 0.3
v 0.5 1.2 0.3
v 0.5 1.5 0.3
v 0.5 1.6 0.3
v 0.5 1.7 0.3
v 0.6 0.6 0.3
v 0.6 0.7 0.3
v 0.6 1.5 0.3
v 0.6 1.7 0.3
v -0.6 0.7 0.2
v -0.6 1 0.2
v -0.5 0.7 0.2
v -0.5 1 0.2
v -0.5 1.2 0.2
v -0.5 1.5 0.2
v -0.5 1.6 0.2
v -0.4 0.4 0.2
v -0.4 0.6 0.2
v -0.4 1 0.2
v -0.4 1.2 0.2
v -0.4 1.5 0.2
v -0.4 1.6 0.2
v -0.3 0 0.2
v -0.3 0.1 0.2
v -0.3 0.2 0.2
v -0.3 0.3 0.2
v -0.3 0.4 0.2
v -0.3 0.6 0.2
v -0.3 0.8 0.2
v -0.3 0.9 0.2
v -0.3 1 0.2
v -0.3 1.8 0.2
v -0.3 1.9 0.2
v -0.2 0.6 0.2
v -0.2 0.8 0.2
v -0.2 0.9 0.2
v -0.2 1 0.2
v -0.2 1.1 0.2
v -0.2 1.8 0.2
v -0.2 1.9 0.2
v -0.1 0 0.2
v -0.1 0.1 0.2
v -0.1 0.2 0.2
v -0.1 0.3 0.2
v -0.1 1 0.2
v -0.1 1.1 0.2
v 0.1 0 0.2
v 0.1 0.1 0.2
v 0.1 0.2 0.2
v 0.1 0.3 0.2
v 0.1 1 0.2
v 0.1 1.1 0.2
v 0.2 0.6 0.2
v 0.2 0.8 0.2
v 0.2 0.9 0.2
v 0.2 1 0.2
v 0.2 1.1 0.2
v 0.2 1.8 0.2
v 0.2 1.9 0.2
v 0.3 0 0.2
v 0.3 0.1 0.2
v 0.3 0.2 0.2
v 0.3 0.3 0.2
v 0.3 0.4 0.2
v 0.3 0.6 0.2
v 0.3 0.8 0.2
v 0.3 0.9 0.2
v 0.3 1 0.2
v 0.3 1.8 0.2
v 0.3 1.9 0.2
v 0.4 0.4 0.2
v 0.4 0.6 0.2
v 0.4 0.9 0.2
v 0.4 1.2 0.2
v 0.5 0.7 0.2
v 0.5 0.8 0.2
v 0.5 0.9 0.2
v 0.5 1.2 0.2
v 0.6 0.7 0.2
v 0.6 0.8 0.2
v -0.7 0.6 0.1
v -0.7 0.7 0.1
v -0.6 0.6 0.1
v -0.6 0.7 0.1
v -0.6 1 0.1
v -0.6 1.2 0.1
v -0.5 0.5 0.1
v -0.5 0.6 0.1
v -0.5 0.8 0.1
v -0.5 1 0.1
v -0.5 1.2 0.1
v -0.5 1.6 0.1
v -0.5 1.7 0.1
v -0.4 0.5 0.1
v -0.4 0.6 0.1
v -0.4 0.8 0.1
v -0.4 0.9 0.1
v -0.4 1.6 0.1
v -0.4 1.7 0.1
v -0.3 0.6 0.1
v -0.3 0.8 0.1
v -0.3 0.9 0.1
v -0.1 1 0.1
v -0.1 1.1 0.1
v 0.1 1 0.1
v 0.1 1.1 0.1
v 0.3 0.6 0.1
v 0.3 0.8 0.1
v 0.3 0.9 0.1
v 0.4 0.5 0.1
v 0.4 0.6 0.1
v 0.4 0.7 0.1
v 0.4 0.9 0.1
v 0.5 0.5 0.1
v 0.5 0.6 0.1
v 0.5 0.7 0.1
v 0.5 0.8 0.1
v 0.5 1.1 0.1
v 0.6 0.6 0.1
v 0.6 0.7 0.1
v 0.6 0.8 0.1
v 0.6 1.1 0.1
v 0.7 0.6 0.1
v 0.7 0.7 0.1
v -0.4 1 0
v -0.4 1.1 0
v -0.3 1 0
v -0.3 1.1 0
v 0 0.6 0
v 0 0.7 0
v 0.1 0.6 0
v 0.1 0.7 0
v 0.5 1.1 0
v 0.5 1.2 0
v 0.6 1.1 0
v 0.6 1.2 0
v -0.7 0.6 -0.1
v -0.7 0.7 -0.1
v -0.6 0.7 -0.1
v -0.5 0.6 -0.1
v -0.5 0.7 -0.1
v -0.6 0.5 -0.2
v -0.6 0.6 -0.2
v -0.5 0.5 -0.2
v -0.5 0.6 -0.2
v 0.5 0.6 -0.2
v 0.5 0.7 -0.2
v 0.6 0.6 -0.2
v 0.6 0.7 -0.2
v -0.5 0.5 -0.3
v -0.5 0.9 -0.3
v -0.4 0.5 -0.3
v -0.4 0.6 -0.3
v -0.4 0.9 -0.3
v -0.4 1 -0.3
v -0.3 0.6 -0.3
v -0.3 0.7 -0.3
v -0.3 1 -0.3
v -0.3 1.1 -0.3
v -0.2 0.7 -0.3
v -0.2 1 -0.3
v -0.2 1.1 -0.3
v -0.1 1 -0.3
v -0.1 1.1 -0.3
v 0.1 1 -0.3
v 0.1 1.1 -0.3
v 0.2 0.7 -0.3
v 0.2 1 -0.3
v 0.2 1.1 -0.3
v 0.3 0.6 -0.3
v 0.3 0.7 -0.3
v 0.3 1 -0.3
v 0.3 1.1 -0.3
v 0.4 0.5 -0.3
v 0.4 0.6 -0.3
v 0.4 0.9 -0.3
v 0.4 1 -0.3
v 0.5 0.6 -0.3
v 0.5 0.9 -0.3
v 0.6 0.5 -0.3
v 0.6 0.6 -0.3
v -0.4 0.7 0.4
v -0.4 0.8 0.4
v -0.3 0.7 0.4
v -0.3 0.8 0.4
v -0.4 0.8 0.3
v -0.4 1 0.3
v -0.3 0.6 0.3
v -0.3 0.8 0.3
v -0.3 1 0.3
v -0.2 0.6 0.3
v -0.2 0.8 0.3
v 0.2 0.6 0.3
v 0.2 0.8 0.3
v 0.3 0.6 0.3
v 0.3 0.7 0.3
v 0.3 0.8 0.3
v 0.4 0.7 0.3
v 0.4 0.8 0.3
v -0.5 0.7 0.2
v -0.5 0.9 0.2
v -0.4 0.7 0.2
v -0.4 0.9 0.2
v -0.4 1 0.2
v -0.4 1.1 0.2
v -0.3 1 0.2
v -0.3 1.1 0.2
v 0.3 0.8 0.2
v 0.3 0.9 0.2
v 0.3 1 0.2
v 0.4 0.8 0.2
v 0.4 1 0.2
v 0.5 1.5 0.2
v 0.5 1.6 0.2
v 0.5 1.7 0.2
v 0.6 1.5 0.2
v 0.6 1.7 0.2
v 0 0.6 0.1
v 0 0.7 0.1
v 0.1 0.6 0.1
v 0.1 0.7 0.1
v 0.4 0.8 0.1
v 0.4 0.9 0.1
v 0.5 0.8 0.1
v 0.5 0.9 0.1
v -0.7 0.6 0
v -0.7 0.7 0
v -0.6 0.7 0
v -0.5 0.6 0
v -0.5 0.7 0
v -0.3 0 0
v -0.3 0.1 0
v -0.3 0.2 0
v -0.3 0.3 0
v -0.1 0 0
v -0.1 0.1 0
v -0.1 0.2 0
v -0.1 0.3 0
v 0.1 0 0
v 0.1 0.1 0
v 0.1 0.2 0
v 0.1 0.3 0
v 0.3 0 0
v 0.3 0.1 0
v 0.3 0.2 0
v 0.3 0.3 0
v -0.6 1.1 -0.1
v -0.6 1.2 -0.1
v -0.5 0.5 -0.1
v -0.5 0.6 -0.1
v -0.5 0.8 -0.1
v -0.5 1.1 -0.1
v -0.5 1.2 -0.1
v -0.5 1.6 -0.1
v -0.5 1.7 -0.1
v -0.4 0.5 -0.1
v -0.4 0.6 -0.1
v -0.4 0.8 -0.1
v -0.4 0.9 -0.1
v -0.4 1.6 -0.1
v -0.4 1.7 -0.1
v -0.3 0.6 -0.1
v -0.3 0.9 -0.1
v 0.3 0.6 -0.1
v 0.3 0.9 -0.1
v 0.4 0.5 -0.1
v 0.4 0.6 -0.1
v 0.4 0.8 -0.1
v 0.4 0.9 -0.1
v 0.5 0.5 -0.1
v 0.5 0.6 -0.1
v 0.5 0.7 -0.1
v 0.5 0.8 -0.1
v 0.5 1.1 -0.1
v 0.5 1.2 -0.1
v 0.6 0.7 -0.1
v 0.6 1.1 -0.1
v 0.6 1.2 -0.1
v 0.7 0.6 -0.1
v 0.7 0.7 -0.1
v -0.6 0.9 -0.2
v -0.6 1.1 -0.2
v -0.5 0.9 -0.2
v -0.5 1.1 -0.2
v -0.5 1.5 -0.2
v -0.5 1.6 -0.2
v -0.4 0.3 -0.2
v -0.4 0.4 -0.2
v -0.4 0.5 -0.2
v -0.4 0.6 -0.2
v -0.4 1.5 -0.2
v -0.4 1.6 -0.2
v -0.4 1.7 -0.2
v -0.4 1.8 -0.2
v -0.3 0.3 -0.2
v -0.3 0.4 -0.2
v -0.3 0.5 -0.2
v -0.3 0.6 -0.2
v -0.3 0.7 -0.2
v -0.3 0.9 -0.2
v -0.3 1 -0.2
v -0.3 1.7 -0.2
v -0.3 1.8 -0.2
v -0.3 1.9 -0.2
v -0.2 0.7 -0.2
v -0.2 0.9 -0.2
v -0.2 1 -0.2
v -0.2 1.1 -0.2
v -0.2 1.8 -0.2
v -0.2 1.9 -0.2
v -0.1 1 -0.2
v -0.1 1.1 -0.2
v 0.1 1 -0.2
v 0.1 1.1 -0.2
v 0.2 0.7 -0.2
v 0.2 0.9 -0.2
v 0.2 1 -0.2
v 0.2 1.1 -0.2
v 0.2 1.8 -0.2
v 0.2 1.9 -0.2
v 0.3 0.3 -0.2
v 0.3 0.4 -0.2
v 0.3 0.5 -0.2
v 0.3 0.6 -0.2
v 0.3 0.7 -0.2
v 0.3 0.9 -0.2
v 0.3 1 -0.2
v 0.3 1.7 -0.2
v 0.3 1.8 -0.2
v 0.3 1.9 -0.2
v 0.4 0.3 -0.2
v 0.4 0.4 -0.2
v 0.4 0.5 -0.2
v 0.4 0.6 -0.2
v 0.4 1.5 -0.2
v 0.4 1.6 -0.2
v 0.4 1.7 -0.2
v 0.4 1.8 -0.2
v 0.5 0.9 -0.2
v 0.5 1.1 -0.2
v 0.5 1.5 -0.2
v 0.5 1.6 -0.2
v 0.6 0.9 -0.2
v 0.6 1.1 -0.2
v -0.7 0.6 -0.3
v -0.7 0.7 -0.3
v -0.6 0.5 -0.3
v -0.6 0.6 -0.3
v -0.6 0.7 -0.3
v -0.6 0.9 -0.3
v -0.5 0.5 -0.3
v -0.5 0.9 -0.3
v -0.5 1 -0.3
v -0.5 1.5 -0.3
v -0.4 0.4 -0.3
v -0.4 0.5 -0.3
v -0.4 1 -0.3
v -0.4 1.5 -0.3
v -0.4 1.6 -0.3
v -0.4 1.7 -0.3
v -0.3 0.3 -0.3
v -0.3 0.4 -0.3
v -0.3 0.5 -0.3
v -0.3 1.6 -0.3
v -0.3 1.7 -0.3
v -0.3 1.8 -0.3
v -0.2 1.7 -0.3
v -0.2 1.8 -0.3
v -0.2 1.9 -0.3
v 0 0.5 -0.3
v 0 0.6 -0.3
v 0.1 0.5 -0.3
v 0.1 0.6 -0.3
v 0.2 1.7 -0.3
v 0.2 1.8 -0.3
v 0.2 1.9 -0.3
v 0.3 0.3 -0.3
v 0.3 0.4 -0.3
v 0.3 0.5 -0.3
v 0.3 1.6 -0.3
v 0.3 1.7 -0.3
v 0.3 1.8 -0.3
v 0.4 0.4 -0.3
v 0.4 0.5 -0.3
v 0.4 1 -0.3
v 0.4 1.5 -0.3
v 0.4 1.6 -0.3
v 0.4 1.7 -0.3
v 0.5 0.6 -0.3
v 0.5 0.9 -0.3
v 0.5 1 -0.3
v 0.5 1.5 -0.3
v 0.6 0.6 -0.3
v 0.6 0.9 -0.3
v -0.5 0.5 -0.4
v -0.5 0.7 -0.4
v -0.5 0.8 -0.4
v -0.5 1 -0.4
v -0.4 0.5 -0.4
v -0.4 0.6 -0.4
v -0.4 0.7 -0.4
v -0.4 0.8 -0.4
v -0.4 1 -0.4
v -0.4 1.6 -0.4
v -0.3 0.5 -0.4
v -0.3 0.6 -0.4
v -0.3 0.8 -0.4
v -0.3 0.9 -0.4
v -0.3 1 -0.4
v -0.3 1.4 -0.4
v -0.3 1.6 -0.4
v -0.3 1.7 -0.4
v -0.2 0.6 -0.4
v -0.2 0.8 -0.4
v -0.2 0.9 -0.4
v -0.2 1.4 -0.4
v -0.2 1.5 -0.4
v -0.2 1.7 -0.4
v -0.2 1.8 -0.4
v -0.1 0.6 -0.4
v -0.1 0.7 -0.4
v -0.1 0.8 -0.4
v -0.1 0.9 -0.4
v -0.1 1.5 -0.4
v -0.1 1.6 -0.4
v 0 0.5 -0.4
v 0 0.6 -0.4
v 0 0.7 -0.4
v 0 0.9 -0.4
v 0.1 0.5 -0.4
v 0.1 0.6 -0.4
v 0.1 0.7 -0.4
v 0.1 0.8 -0.4
v 0.1 1.5 -0.4
v 0.1 1.6 -0.4
v 0.2 0.6 -0.4
v 0.2 0.8 -0.4
v 0.2 1.4 -0.4
v 0.2 1.5 -0.4
v 0.2 1.7 -0.4
v 0.2 1.8 -0.4
v 0.3 0.5 -0.4
v 0.3 0.6 -0.4
v 0.3 0.7 -0.4
v 0.3 0.9 -0.4
v 0.3 1.4 -0.4
v 0.3 1.6 -0.4
v 0.3 1.7 -0.4
v 0.4 0.5 -0.4
v 0.4 0.6 -0.4
v 0.4 0.7 -0.4
v 0.4 0.9 -0.4
v 0.4 1 -0.4
v 0.4 1.6 -0.4
v 0.5 0.6 -0.4
v 0.5 1 -0.4
v 0.6 0.5 -0.4
v 0.6 0.6 -0.4
v -0.5 0.7 -0.5
v -0.5 0.8 -0.5
v -0.4 0.7 -0.5
v -0.4 0.8 -0.5
v -0.4 1 -0.5
v -0.3 0.6 -0.5
v -0.3 0.8 -0.5
v -0.3 0.9 -0.5
v -0.3 1 -0.5
v -0.3 1.4 -0.5
v -0.2 0.6 -0.5
v -0.2 0.8 -0.5
v -0.2 0.9 -0.5
v -0.2 1.4 -0.5
v -0.2 1.5 -0.5
v -0.1 0.6 -0.5
v -0.1 0.7 -0.5
v -0.1 0.8 -0.5
v -0.1 0.9 -0.5
v -0.1 1.5 -0.5
v -0.1 1.6 -0.5
v 0 0.6 -0.5
v 0 0.7 -0.5
v 0 0.9 -0.5
v 0.1 0.7 -0.5
v 0.1 0.8 -0.5
v 0.1 1.5 -0.5
v 0.1 1.6 -0.5
v 0.2 0.6 -0.5
v 0.2 0.8 -0.5
v 0.2 1.4 -0.5
v 0.2 1.5 -0.5
v 0.3 0.6 -0.5
v 0.3 0.7 -0.5
v 0.3 0.9 -0.5
v 0.3 1.4 -0.5
v 0.4 0.7 -0.5
v 0.4 0.9 -0.5
v -0.3 0 0.2
v -0.1 0 0.2
v 0.1 0 0.2
v 0.3 0 0.2
v -0.3 0 0
v -0.1 0 0
v 0.1 0 0
v 0.3 0 0
v -0.3 0.3 0.4
v 0.3 0.3 0.4
v -0.4 0.3 0.3
v -0.3 0.3 0.3
v 0.3 0.3 0.3
v 0.4 0.3 0.3
v -0.3 0.3 0.2
v -0.1 0.3 0.2
v 0.1 0.3 0.2
v 0.3 0.3 0.2
v -0.3 0.3 0
v -0.1 0.3 0
v 0.1 0.3 0
v 0.3 0.3 0
v -0.4 0.3 -0.2
v -0.3 0.3 -0.2
v 0.3 0.3 -0.2
v 0.4 0.3 -0.2
v -0.3 0.3 -0.3
v 0.3 0.3 -0.3
v -0.4 0.4 -0.2
v -0.3 0.4 -0.2
v 0.3 0.4 -0.2
v 0.4 0.4 -0.2
v -0.4 0.4 -0.3
v -0.3 0.4 -0.3
v 0.3 0.4 -0.3
v 0.4 0.4 -0.3
v -0.5 0.5 0.1
v -0.4 0.5 0.1
v 0.4 0.5 0.1
v 0.5 0.5 0.1
v -0.5 0.5 -0.1
v -0.4 0.5 -0.1
v 0.4 0.5 -0.1
v 0.5 0.5 -0.1
v -0.6 0.5 -0.2
v -0.5 0.5 -0.2
v -0.6 0.5 -0.3
v -0.5 0.5 -0.3
v -0.4 0.5 -0.3
v -0.3 0.5 -0.3
v 0 0.5 -0.3
v 0.1 0.5 -0.3
v 0.3 0.5 -0.3
v 0.4 0.5 -0.3
v 0.6 0.5 -0.3
v -0.5 0.5 -0.4
v -0.4 0.5 -0.4
v -0.3 0.5 -0.4
v 0 0.5 -0.4
v 0.1 0.5 -0.4
v 0.3 0.5 -0.4
v 0.4 0.5 -0.4
v 0.6 0.5 -0.4
v -0.3 0.6 0.5
v -0.2 0.6 0.5
v 0.2 0.6 0.5
v 0.3 0.6 0.5
v -0.2 0.6 0.4
v 0.2 0.6 0.4
v -0.6 0.6 0.3
v -0.5 0.6 0.3
v -0.3 0.6 0.3
v -0.2 0.6 0.3
v 0.2 0.6 0.3
v 0.3 0.6 0.3
v 0.5 0.6 0.3
v 0.6 0.6 0.3
v -0.7 0.6 0.1
v -0.6 0.6 0.1
v -0.5 0.6 0.1
v 0.5 0.6 0.1
v 0.6 0.6 0.1
v 0.7 0.6 0.1
v -0.7 0.6 0
v -0.5 0.6 0
v -0.7 0.6 -0.1
v -0.5 0.6 -0.1
v 0.5 0.6 -0.1
v 0.7 0.6 -0.1
v -0.6 0.6 -0.2
v -0.5 0.6 -0.2
v 0.5 0.6 -0.2
v 0.6 0.6 -0.2
v -0.7 0.6 -0.3
v -0.6 0.6 -0.3
v -0.4 0.6 -0.3
v -0.3 0.6 -0.3
v 0 0.6 -0.3
v 0.1 0.6 -0.3
v 0.3 0.6 -0.3
v 0.4 0.6 -0.3
v 0.5 0.6 -0.3
v 0.6 0.6 -0.3
v -0.4 0.6 -0.4
v -0.3 0.6 -0.4
v -0.2 0.6 -0.4
v -0.1 0.6 -0.4
v 0 0.6 -0.4
v 0.1 0.6 -0.4
v 0.2 0.6 -0.4
v 0.3 0.6 -0.4
v 0.4 0.6 -0.4
v -0.3 0.6 -0.5
v -0.2 0.6 -0.5
v -0.1 0.6 -0.5
v 0 0.6 -0.5
v 0.2 0.6 -0.5
v 0.3 0.6 -0.5
v -0.4 0.7 0.5
v -0.3 0.7 0.5
v 0.3 0.7 0.5
v 0.4 0.7 0.5
v -0.4 0.7 0.4
v -0.3 0.7 0.4
v -0.5 0.7 0.3
v -0.4 0.7 0.3
v 0.3 0.7 0.3
v 0.4 0.7 0.3
v 0.5 0.7 0.3
v -0.5 0.7 0.2
v -0.4 0.7 0.2
v 0 0.7 0.1
v 0.1 0.7 0.1
v 0.4 0.7 0.1
v 0.5 0.7 0.1
v -0.6 0.7 0
v -0.5 0.7 0
v 0 0.7 0
v 0.1 0.7 0
v -0.6 0.7 -0.1
v -0.5 0.7 -0.1
v 0.5 0.7 -0.1
v 0.6 0.7 -0.1
v 0.5 0.7 -0.2
v 0.6 0.7 -0.2
v -0.5 0.7 -0.4
v -0.4 0.7 -0.4
v 0 0.7 -0.4
v 0.1 0.7 -0.4
v 0.3 0.7 -0.4
v 0.4 0.7 -0.4
v -0.5 0.7 -0.5
v -0.4 0.7 -0.5
v 0 0.7 -0.5
v 0.1 0.7 -0.5
v 0.3 0.7 -0.5
v 0.4 0.7 -0.5
v -0.4 0.8 0.4
v -0.3 0.8 0.4
v -0.4 0.8 0.3
v -0.3 0.8 0.3
v 0.3 0.8 0.3
v 0.4 0.8 0.3
v 0.3 0.8 0.2
v 0.4 0.8 0.2
v -0.4 0.8 -0.4
v -0.3 0.8 -0.4
v -0.2 0.8 -0.4
v -0.1 0.8 -0.4
v 0.1 0.8 -0.4
v 0.2 0.8 -0.4
v -0.4 0.8 -0.5
v -0.3 0.8 -0.5
v -0.2 0.8 -0.5
v -0.1 0.8 -0.5
v 0.1 0.8 -0.5
v 0.2 0.8 -0.5
v -0.5 0.9 0.2
v -0.4 0.9 0.2
v -0.4 0.9 0.1
v 0.4 0.9 0.1
v 0.5 0.9 0.1
v -0.4 0.9 -0.1
v 0.4 0.9 -0.1
v -0.5 0.9 -0.3
v -0.4 0.9 -0.3
v 0.4 0.9 -0.3
v 0.5 0.9 -0.3
v -0.3 0.9 -0.4
v -0.2 0.9 -0.4
v -0.1 0.9 -0.4
v 0 0.9 -0.4
v -0.3 0.9 -0.5
v -0.2 0.9 -0.5
v -0.1 0.9 -0.5
v 0 0.9 -0.5
v -0.4 1 0.3
v -0.3 1 0.3
v -0.4 1 0.2
v -0.3 1 0.2
v 0.3 1 0.2
v 0.4 1 0.2
v -0.4 1 0
v -0.3 1 0
v -0.3 1 -0.2
v 0.3 1 -0.2
v -0.4 1 -0.3
v -0.3 1 -0.3
v 0.3 1 -0.3
v 0.4 1 -0.3
v -0.3 1.1 0.3
v -0.2 1.1 0.3
v -0.1 1.1 0.3
v 0.1 1.1 0.3
v 0.2 1.1 0.3
v 0.3 1.1 0.3
v -0.4 1.1 0.2
v -0.3 1.1 0.2
v -0.2 1.1 0.2
v -0.1 1.1 0.2
v 0.1 1.1 0.2
v 0.2 1.1 0.2
v -0.1 1.1 0.1
v 0.1 1.1 0.1
v 0.2 1.1 0.1
v 0.3 1.1 0.1
v -0.4 1.1 0
v -0.3 1.1 0
v 0.2 1.1 -0.1
v 0.3 1.1 -0.1
v -0.2 1.1 -0.2
v -0.1 1.1 -0.2
v 0.1 1.1 -0.2
v 0.2 1.1 -0.2
v -0.3 1.1 -0.3
v -0.2 1.1 -0.3
v -0.1 1.1 -0.3
v 0.1 1.1 -0.3
v 0.2 1.1 -0.3
v 0.3 1.1 -0.3
v -0.5 1.2 0.3
v -0.4 1.2 0.3
v 0.4 1.2 0.3
v 0.5 1.2 0.3
v -0.5 1.2 0.2
v -0.4 1.2 0.2
v 0.4 1.2 0.2
v 0.5 1.2 0.2
v -0.4 1.3 0.5
v -0.2 1.3 0.5
v 0.3 1.3 0.5
v 0.4 1.3 0.5
v -0.4 1.3 0.4
v -0.3 1.3 0.4
v -0.1 1.3 0.4
v 0 1.3 0.4
v 0.3 1.3 0.4
v 0.4 1.3 0.4
v -0.3 1.3 0.3
v -0.2 1.3 0.3
v -0.1 1.3 0.3
v 0 1.3 0.3
v -0.2 1.4 0.5
v -0.1 1.4 0.5
v 0.2 1.4 0.5
v 0.3 1.4 0.5
v -0.1 1.4 0.4
v 0 1.4 0.4
v 0.1 1.4 0.4
v -0.2 1.4 0.3
v -0.1 1.4 0.3
v 0 1.4 0.3
v 0.1 1.4 0.3
v 0.2 1.4 0.3
v 0.3 1.4 0.3
v -0.1 1.5 0.5
v 0.1 1.5 0.5
v -0.1 1.5 0.4
v 0.1 1.5 0.4
v 0.2 1.5 0.4
v 0.1 1.5 0.3
v 0.2 1.5 0.3
v 0.5 1.5 0.3
v 0.6 1.5 0.3
v 0.5 1.5 0.2
v 0.6 1.5 0.2
v -0.4 0.4 0.3
v -0.3 0.4 0.3
v 0.3 0.4 0.3
v 0.4 0.4 0.3
v -0.4 0.4 0.2
v -0.3 0.4 0.2
v 0.3 0.4 0.2
v 0.4 0.4 0.2
v -0.3 0.5 0.4
v -0.2 0.5 0.4
v 0.2 0.5 0.4
v 0.3 0.5 0.4
v -0.3 0.5 0.3
v -0.2 0.5 0.3
v 0.2 0.5 0.3
v 0.3 0.5 0.3
v -0.4 0.5 -0.2
v -0.3 0.5 -0.2
v 0.3 0.5 -0.2
v 0.4 0.5 -0.2
v -0.4 0.5 -0.3
v -0.3 0.5 -0.3
v 0.3 0.5 -0.3
v 0.4 0.5 -0.3
v -0.2 0.6 0.4
v 0.2 0.6 0.4
v -0.3 0.6 0.3
v -0.2 0.6 0.3
v 0 0.6 0.3
v 0.1 0.6 0.3
v 0.2 0.6 0.3
v 0.3 0.6 0.3
v -0.4 0.6 0.2
v -0.3 0.6 0.2
v -0.2 0.6 0.2
v 0.2 0.6 0.2
v 0.3 0.6 0.2
v 0.4 0.6 0.2
v -0.4 0.6 0.1
v -0.3 0.6 0.1
v 0 0.6 0.1
v 0.1 0.6 0.1
v 0.3 0.6 0.1
v 0.4 0.6 0.1
v 0 0.6 0
v 0.1 0.6 0
v -0.4 0.6 -0.1
v -0.3 0.6 -0.1
v 0.3 0.6 -0.1
v 0.4 0.6 -0.1
v -0.4 0.6 -0.2
v -0.3 0.6 -0.2
v 0.3 0.6 -0.2
v 0.4 0.6 -0.2
v 0.5 0.6 -0.3
v 0.6 0.6 -0.3
v 0.5 0.6 -0.4
v 0.6 0.6 -0.4
v -0.6 0.7 0.3
v -0.5 0.7 0.3
v 0.5 0.7 0.3
v 0.6 0.7 0.3
v -0.6 0.7 0.2
v -0.5 0.7 0.2
v 0.5 0.7 0.2
v 0.6 0.7 0.2
v -0.7 0.7 0.1
v -0.6 0.7 0.1
v 0.6 0.7 0.1
v 0.7 0.7 0.1
v -0.7 0.7 0
v -0.6 0.7 0
v -0.7 0.7 -0.1
v -0.6 0.7 -0.1
v 0.6 0.7 -0.1
v 0.7 0.7 -0.1
v -0.3 0.7 -0.2
v -0.2 0.7 -0.2
v 0.2 0.7 -0.2
v 0.3 0.7 -0.2
v -0.7 0.7 -0.3
v -0.6 0.7 -0.3
v -0.3 0.7 -0.3
v -0.2 0.7 -0.3
v 0.2 0.7 -0.3
v 0.3 0.7 -0.3
v -0.1 0.7 -0.4
v 0 0.7 -0.4
v -0.1 0.7 -0.5
v 0 0.7 -0.5
v -0.3 0.8 0.5
v -0.2 0.8 0.5
v 0.2 0.8 0.5
v 0.3 0.8 0.5
v -0.3 0.8 0.3
v -0.2 0.8 0.3
v 0.2 0.8 0.3
v 0.3 0.8 0.3
v 0.5 0.8 0.2
v 0.6 0.8 0.2
v -0.5 0.8 0.1
v -0.4 0.8 0.1
v 0.4 0.8 0.1
v 0.5 0.8 0.1
v 0.6 0.8 0.1
v -0.5 0.8 -0.1
v -0.4 0.8 -0.1
v 0.4 0.8 -0.1
v 0.5 0.8 -0.1
v -0.5 0.8 -0.4
v -0.4 0.8 -0.4
v -0.3 0.8 -0.4
v -0.2 0.8 -0.4
v -0.5 0.8 -0.5
v -0.4 0.8 -0.5
v -0.3 0.8 -0.5
v -0.2 0.8 -0.5
v -0.4 0.9 0.5
v -0.3 0.9 0.5
v 0.3 0.9 0.5
v 0.4 0.9 0.5
v -0.4 0.9 0.4
v -0.3 0.9 0.4
v 0.3 0.9 0.4
v 0.4 0.9 0.4
v 0.4 0.9 0.3
v 0.5 0.9 0.3
v 0.4 0.9 0.2
v 0.5 0.9 0.2
v -0.4 0.9 0.1
v -0.3 0.9 0.1
v 0.3 0.9 0.1
v 0.4 0.9 0.1
v -0.4 0.9 -0.1
v -0.3 0.9 -0.1
v 0.3 0.9 -0.1
v 0.4 0.9 -0.1
v -0.6 0.9 -0.2
v -0.5 0.9 -0.2
v 0.5 0.9 -0.2
v 0.6 0.9 -0.2
v -0.6 0.9 -0.3
v -0.5 0.9 -0.3
v 0.5 0.9 -0.3
v 0.6 0.9 -0.3
v 0.3 0.9 -0.4
v 0.4 0.9 -0.4
v 0.3 0.9 -0.5
v 0.4 0.9 -0.5
v -0.5 1 0.3
v -0.4 1 0.3
v -0.2 1 0.3
v -0.1 1 0.3
v 0.1 1 0.3
v 0.2 1 0.3
v -0.6 1 0.2
v -0.5 1 0.2
v -0.4 1 0.2
v -0.3 1 0.2
v -0.2 1 0.2
v -0.1 1 0.2
v 0.1 1 0.2
v 0.2 1 0.2
v 0.3 1 0.2
v -0.6 1 0.1
v -0.5 1 0.1
v -0.1 1 0.1
v 0.1 1 0.1
v -0.3 1 0
v -0.3 1 -0.2
v -0.2 1 -0.2
v -0.1 1 -0.2
v 0.1 1 -0.2
v 0.2 1 -0.2
v 0.3 1 -0.2
v -0.5 1 -0.3
v -0.4 1 -0.3
v -0.2 1 -0.3
v -0.1 1 -0.3
v 0.1 1 -0.3
v 0.2 1 -0.3
v 0.4 1 -0.3
v 0.5 1 -0.3
v -0.5 1 -0.4
v -0.4 1 -0.4
v -0.3 1 -0.4
v 0.4 1 -0.4
v 0.5 1 -0.4
v -0.4 1 -0.5
v -0.3 1 -0.5
v 0.5 1.1 0.1
v 0.6 1.1 0.1
v 0.5 1.1 0
v 0.6 1.1 0
v -0.6 1.1 -0.1
v -0.5 1.1 -0.1
v 0.5 1.1 -0.1
v 0.6 1.1 -0.1
v -0.6 1.1 -0.2
v -0.5 1.1 -0.2
v 0.5 1.1 -0.2
v 0.6 1.1 -0.2
v -0.6 1.2 0.1
v -0.5 1.2 0.1
v 0.5 1.2 0
v 0.6 1.2 0
v -0.6 1.2 -0.1
v -0.5 1.2 -0.1
v 0.5 1.2 -0.1
v 0.6 1.2 -0.1
v -0.4 1.4 0.5
v -0.3 1.4 0.5
v 0.3 1.4 0.5
v 0.4 1.4 0.5
v -0.4 1.4 0.4
v -0.3 1.4 0.4
v 0.3 1.4 0.4
v 0.4 1.4 0.4
v -0.3 1.4 -0.4
v -0.2 1.4 -0.4
v 0.2 1.4 -0.4
v 0.3 1.4 -0.4
v -0.3 1.4 -0.5
v -0.2 1.4 -0.5
v 0.2 1.4 -0.5
v 0.3 1.4 -0.5
v 0.2 1.5 0.5
v 0.3 1.5 0.5
v 0.2 1.5 0.4
v 0.3 1.5 0.4
v -0.5 1.5 0.3
v -0.4 1.5 0.3
v -0.5 1.5 0.2
v -0.4 1.5 0.2
v -0.5 1.5 -0.2
v -0.4 1.5 -0.2
v 0.4 1.5 -0.2
v 0.5 1.5 -0.2
v -0.5 1.5 -0.3
v -0.4 1.5 -0.3
v 0.4 1.5 -0.3
v 0.5 1.5 -0.3
v -0.2 1.5 -0.4
v -0.1 1.5 -0.4
v 0.1 1.5 -0.4
v 0.2 1.5 -0.4
v -0.2 1.5 -0.5
v -0.1 1.5 -0.5
v 0.1 1.5 -0.5
v 0.2 1.5 -0.5
v -0.3 1.6 0.5
v -0.2 1.6 0.5
v -0.3 1.6 0.4
v -0.2 1.6 0.4
v 0.4 1.6 0.3
v 0.5 1.6 0.3
v -0.5 1.6 0.2
v -0.4 1.6 0.2
v 0.4 1.6 0.2
v 0.5 1.6 0.2
v -0.5 1.6 0.1
v -0.4 1.6 0.1
v -0.5 1.6 -0.1
v -0.4 1.6 -0.1
v -0.5 1.6 -0.2
v -0.4 1.6 -0.2
v 0.4 1.6 -0.2
v 0.5 1.6 -0.2
v -0.4 1.6 -0.3
v -0.3 1.6 -0.3
v 0.3 1.6 -0.3
v 0.4 1.6 -0.3
v -0.4 1.6 -0.4
v -0.3 1.6 -0.4
v -0.1 1.6 -0.4
v 0.1 1.6 -0.4
v 0.3 1.6 -0.4
v 0.4 1.6 -0.4
v -0.1 1.6 -0.5
v 0.1 1.6 -0.5
v -0.2 1.7 0.5
v 0.1 1.7 0.5
v -0.4 1.7 0.4
v -0.3 1.7 0.4
v -0.2 1.7 0.4
v 0.1 1.7 0.4
v 0.3 1.7 0.4
v 0.4 1.7 0.4
v -0.4 1.7 0.3
v -0.3 1.7 0.3
v 0.3 1.7 0.3
v 0.4 1.7 0.3
v 0.5 1.7 0.3
v 0.6 1.7 0.3
v 0.5 1.7 0.2
v 0.6 1.7 0.2
v -0.5 1.7 0.1
v -0.4 1.7 0.1
v -0.5 1.7 -0.1
v -0.4 1.7 -0.1
v -0.4 1.7 -0.2
v -0.3 1.7 -0.2
v 0.3 1.7 -0.2
v 0.4 1.7 -0.2
v -0.4 1.7 -0.3
v -0.3 1.7 -0.3
v -0.2 1.7 -0.3
v 0.2 1.7 -0.3
v 0.3 1.7 -0.3
v 0.4 1.7 -0.3
v -0.3 1.7 -0.4
v -0.2 1.7 -0.4
v 0.2 1.7 -0.4
v 0.3 1.7 -0.4
v -0.3 1.8 0.4
v -0.1 1.8 0.4
v 0.1 1.8 0.4
v 0.3 1.8 0.4
v -0.4 1.8 0.3
v -0.3 1.8 0.3
v -0.2 1.8 0.3
v -0.1 1.8 0.3
v 0.1 1.8 0.3
v 0.2 1.8 0.3
v 0.3 1.8 0.3
v 0.4 1.8 0.3
v -0.3 1.8 0.2
v -0.2 1.8 0.2
v 0.2 1.8 0.2
v 0.3 1.8 0.2
v -0.4 1.8 -0.2
v -0.3 1.8 -0.2
v -0.2 1.8 -0.2
v 0.2 1.8 -0.2
v 0.3 1.8 -0.2
v 0.4 1.8 -0.2
v -0.3 1.8 -0.3
v -0.2 1.8 -0.3
v 0.2 1.8 -0.3
v 0.3 1.8 -0.3
v -0.2 1.8 -0.4
v 0.2 1.8 -0.4
v -0.1 1.9 0.4
v 0.1 1.9 0.4
v -0.2 1.9 0.3
v -0.1 1.9 0.3
v 0.1 1.9 0.3
v 0.2 1.9 0.3
v -0.3 1.9 0.2
v -0.2 1.9 0.2
v 0.2 1.9 0.2
v 0.3 1.9 0.2
v -0.3 1.9 -0.2
v -0.2 1.9 -0.2
v 0.2 1.9 -0.2
v 0.3 1.9 -0.2
v -0.2 1.9 -0.3
v 0.2 1.9 -0.3

# faces
f 5/4/1 2/4/1 1/4/1
f 6/4/1 2/4/1 5/4/1
f 7/4/1 4/4/1 3/4/1
f 8/4/1 4/4/1 7/4/1
f 13/4/1 10/4/1 9/4/1
f 14/4/1 10/4/1 13/4/1
f 15/4/1 12/4/1 11/4/1
f 16/4/1 12/4/1 15/4/1
f 17/4/1 12/4/1 16/4/1
f 21/4/1 20/4/1 19/4/1
f 21/4/1 19/4/1 18/4/1
f 21/4/1 18/4/1 17/4/1
f 21/4/1 17/4/1 16/4/1
f 22/4/1 20/4/1 21/4/1
f 23/4/1 21/4/1 16/4/1
f 24/4/1 21/4/1 23/4/1
f 25/4/1 21/4/1 24/4/1
f 26/4/1 21/4/1 25/4/1
f 27/4/1 25/4/1 24/4/1
f 28/4/1 25/4/1 27/4/1
f 33/1/1 30/1/1 29/1/1
f 34/1/1 30/1/1 33/1/1
f 35/1/1 30/1/1 34/1/1
f 38/7/1 35/7/1 34/7/1
f 39/7/1 35/7/1 38/7/1
f 40/4/1 32/4/1 31/4/1
f 42/4/1 41/4/1 40/4/1
f 42/4/1 40/4/1 31/4/1
f 43/4/1 41/4/1 42/4/1
f 45/4/1 42/4/1 31/4/1
f 46/4/1 37/4/1 36/4/1
f 47/4/1 37/4/1 46/4/1
f 49/4/1 45/4/1 44/4/1
f 49/4/1 42/4/1 45/4/1
f 50/4/1 42/4/1 49/4/1
f 52/4/1 49/4/1 44/4/1
f 54/4/1 48/4/1 47/4/1
f 55/4/1 48/4/1 54/4/1
f 56/4/1 52/4/1 51/4/1
f 57/4/1 55/4/1 54/4/1
f 57/4/1 56/4/1 55/4/1
f 57/4/1 54/4/1 53/4/1
f 58/4/1 56/4/1 57/4/1
f 59/4/1 52/4/1 56/4/1
f 59/4/1 56/4/1 58/4/1
f 59/4/1 49/4/1 52/4/1
f 60/4/1 49/4/1 59/4/1
f 61/4/1 59/4/1 58/4/1
f 62/4/1 59/4/1 61/4/1
f 63/4/1 59/4/1 62/4/1
f 64/4/1 59/4/1 63/4/1
f 65/4/1 63/4/1 62/4/1
f 66/4/1 63/4/1 65/4/1
f 69/5/1 68/5/1 67/5/1
f 70/5/1 68/5/1 69/5/1
f 71/5/1 68/5/1 70/5/1
f 73/7/1 72/7/1 71/7/1
f 73/7/1 71/7/1 70/7/1
f 74/7/1 72/7/1 73/7/1
f 75/7/1 72/7/1 74/7/1
f 76/7/1 72/7/1 75/7/1
f 77/7/1 73/7/1 70/7/1
f 78/7/1 73/7/1 77/7/1
f 79/7/1 75/7/1 74/7/1
f 80/7/1 75/7/1 79/7/1
f 83/4/1 82/4/1 81/4/1
f 89/4/1 84/4/1 83/4/1
f 89/4/1 83/4/1 81/4/1
f 90/4/1 84/4/1 89/4/1
f 91/7/1 86/7/1 85/7/1
f 92/7/1 86/7/1 91/7/1
f 93/4/1 84/4/1 90/4/1
f 96/4/1 88/4/1 87/4/1
f 97/4/1 88/4/1 96/4/1
f 98/4/1 94/4/1 93/4/1
f 98/4/1 93/4/1 90/4/1
f 99/4/1 94/4/1 98/4/1
f 101/4/1 98/4/1 90/4/1
f 102/4/1 101/4/1 100/4/1
f 103/4/1 98/4/1 101/4/1
f 103/4/1 101/4/1 102/4/1
f 104/4/1 98/4/1 103/4/1
f 107/4/1 96/4/1 95/4/1
f 108/4/1 105/4/1 104/4/1
f 111/4/1 107/4/1 106/4/1
f 112/4/1 96/4/1 107/4/1
f 112/4/1 107/4/1 111/4/1
f 113/4/1 96/4/1 112/4/1
f 114/4/1 104/4/1 103/4/1
f 114/4/1 109/4/1 108/4/1
f 114/4/1 108/4/1 104/4/1
f 115/4/1 109/4/1 114/4/1
f 116/4/1 109/4/1 115/4/1
f 117/4/1 112/4/1 111/4/1
f 117/4/1 111/4/1 110/4/1
f 118/4/1 112/4/1 117/4/1
f 119/4/1 112/4/1 118/4/1
f 120/4/1 116/4/1 115/4/1
f 120/4/1 118/4/1 117/4/1
f 120/4/1 117/4/1 116/4/1
f 121/4/1 118/4/1 120/4/1
f 124/16/1 123/16/1 122/16/1
f 125/16/1 123/16/1 124/16/1
f 126/11/1 125/11/1 124/11/1
f 127/11/1 125/11/1 126/11/1
f 130/14/1 127/14/1 126/14/1
f 131/14/1 127/14/1 130/14/1
f 134/5/1 129/5/1 128/5/1
f 135/5/1 129/5/1 134/5/1
f 137/5/1 133/5/1 132/5/1
f 138/5/1 133/5/1 137/5/1
f 139/7/1 136/7/1 135/7/1
f 139/7/1 135/7/1 134/7/1
f 140/7/1 136/7/1 139/7/1
f 145/7/1 136/7/1 140/7/1
f 146/7/1 136/7/1 145/7/1
f 149/7/1 142/7/1 141/7/1
f 150/4/1 143/4/1 142/4/1
f 150/7/1 142/7/1 149/7/1
f 151/4/1 143/4/1 150/4/1
f 153/4/1 145/4/1 144/4/1
f 154/4/1 145/4/1 153/4/1
f 155/7/1 149/7/1 148/7/1
f 155/7/1 150/7/1 149/7/1
f 156/7/1 150/7/1 155/7/1
f 157/4/1 145/4/1 154/4/1
f 158/4/1 145/4/1 157/4/1
f 159/7/1 147/7/1 146/7/1
f 160/7/1 147/7/1 159/7/1
f 161/4/1 152/4/1 151/4/1
f 162/4/1 152/4/1 161/4/1
f 163/11/1 160/11/1 159/11/1
f 164/11/1 160/11/1 163/11/1
f 165/7/1 155/7/1 148/7/1
f 166/7/1 155/7/1 165/7/1
f 167/5/1 164/5/1 163/5/1
f 167/5/1 165/5/1 164/5/1
f 167/5/1 166/5/1 165/5/1
f 168/5/1 166/5/1 167/5/1
f 169/5/1 166/5/1 168/5/1
f 174/4/1 171/4/1 170/4/1
f 175/4/1 171/4/1 174/4/1
f 176/4/1 173/4/1 172/4/1
f 177/4/1 173/4/1 176/4/1
f 183/4/1 179/4/1 178/4/1
f 184/4/1 179/4/1 183/4/1
f 185/4/1 181/4/1 180/4/1
f 186/4/1 181/4/1 185/4/1
f 188/4/1 183/4/1 182/4/1
f 189/4/1 183/4/1 188/4/1
f 190/4/1 188/4/1 187/4/1
f 191/4/1 188/4/1 190/4/1
f 194/7/1 193/7/1 192/7/1
f 195/7/1 193/7/1 194/7/1
f 199/7/1 196/7/1 195/7/1
f 200/7/1 196/7/1 199/7/1
f 203/6/1 200/6/1 199/6/1
f 204/6/1 200/6/1 203/6/1
f 205/7/1 198/7/1 197/7/1
f 206/4/1 202/4/1 201/4/1
f 207/4/1 202/4/1 206/4/1
f 208/5/1 204/5/1 203/5/1
f 209/5/1 204/5/1 208/5/1
f 210/7/1 198/7/1 205/7/1
f 211/7/1 198/7/1 210/7/1
f 212/5/1 210/5/1 209/5/1
f 213/5/1 210/5/1 212/5/1
f 216/4/1 215/4/1 214/4/1
f 217/4/1 215/4/1 216/4/1
f 220/4/1 219/4/1 218/4/1
f 221/4/1 219/4/1 220/4/1
f 227/4/1 223/4/1 222/4/1
f 228/4/1 223/4/1 227/4/1
f 229/4/1 225/4/1 224/4/1
f 230/4/1 225/4/1 229/4/1
f 231/4/1 227/4/1 226/4/1
f 232/4/1 227/4/1 231/4/1
f 235/4/1 234/4/1 233/4/1
f 236/4/1 234/4/1 235/4/1
f 239/13/1 238/13/1 237/13/1
f 240/13/1 238/13/1 239/13/1
f 243/4/1 242/4/1 241/4/1
f 244/4/1 242/4/1 243/4/1
f 247/4/1 246/4/1 245/4/1
f 248/4/1 246/4/1 247/4/1
f 251/4/1 250/4/1 249/4/1
f 252/4/1 250/4/1 251/4/1
f 255/4/1 254/4/1 253/4/1
f 256/4/1 254/4/1 255/4/1
f 259/16/1 258/16/1 257/16/1
f 260/16/1 258/16/1 259/16/1
f 261/11/1 260/11/1 259/11/1
f 262/11/1 260/11/1 261/11/1
f 263/14/1 262/14/1 261/14/1
f 264/14/1 262/14/1 263/14/1
f 269/4/1 266/4/1 265/4/1
f 270/4/1 266/4/1 269/4/1
f 271/12/1 268/12/1 267/12/1
f 272/12/1 268/12/1 271/12/1
f 275/5/1 274/5/1 273/5/1
f 276/5/1 274/5/1 275/5/1
f 282/4/1 278/4/1 277/4/1
f 282/4/1 279/4/1 278/4/1
f 283/4/1 279/4/1 282/4/1
f 284/4/1 281/4/1 280/4/1
f 285/4/1 281/4/1 284/4/1
f 288/4/1 287/4/1 286/4/1
f 289/4/1 287/4/1 288/4/1
f 290/4/1 287/4/1 289/4/1
f 294/4/1 292/4/1 291/4/1
f 294/4/1 293/4/1 292/4/1
f 295/4/1 293/4/1 294/4/1
f 296/4/1 293/4/1 295/4/1
f 297/4/1 296/4/1 295/4/1
f 300/4/1 297/4/1 295/4/1
f 300/4/1 299/4/1 298/4/1
f 300/4/1 298/4/1 297/4/1
f 301/4/1 299/4/1 300/4/1
f 302/4/1 299/4/1 301/4/1
f 303/4/1 299/4/1 302/4/1
f 304/4/1 300/4/1 295/4/1
f 306/4/1 304/4/1 295/4/1
f 307/4/1 304/4/1 306/4/1
f 308/4/1 306/4/1 305/4/1
f 308/4/1 307/4/1 306/4/1
f 309/4/1 307/4/1 308/4/1
f 312/4/1 311/4/1 310/4/1
f 313/4/1 311/4/1 312/4/1
f 316/4/1 315/4/1 314/4/1
f 317/4/1 315/4/1 316/4/1
f 318/4/1 315/4/1 317/4/1
f 321/4/1 318/4/1 317/4/1
f 321/4/1 320/4/1 319/4/1
f 321/4/1 319/4/1 318/4/1
f 322/4/1 320/4/1 321/4/1
f 327/4/1 324/4/1 323/4/1
f 328/4/1 324/4/1 327/4/1
f 330/4/1 326/4/1 325/4/1
f 332/4/1 330/4/1 329/4/1
f 333/4/1 332/4/1 331/4/1
f 334/4/1 326/4/1 330/4/1
f 334/4/1 332/4/1 333/4/1
f 334/4/1 330/4/1 332/4/1
f 337/17/1 336/17/1 335/17/1
f 338/17/1 336/17/1 337/17/1
f 339/4/2 340/4/2 344/4/2
f 341/4/2 342/4/2 345/4/2
f 345/4/2 342/4/2 346/4/2
f 346/4/2 342/4/2 347/4/2
f 343/4/2 344/4/2 348/4/2
f 346/4/2 347/4/2 349/4/2
f 347/4/2 348/4/2 349/4/2
f 348/4/2 344/4/2 350/4/2
f 349/4/2 348/4/2 350/4/2
f 344/4/2 340/4/2 350/4/2
f 351/4/2 352/4/2 353/4/2
f 353/4/2 352/4/2 354/4/2
f 355/4/2 356/4/2 359/4/2
f 357/4/2 358/4/2 360/4/2
f 360/4/2 358/4/2 361/4/2
f 359/4/2 356/4/2 362/4/2
f 359/4/2 362/4/2 366/4/2
f 364/4/2 365/4/2 366/4/2
f 363/4/2 364/4/2 366/4/2
f 362/4/2 363/4/2 366/4/2
f 366/4/2 365/4/2 367/4/2
f 367/4/2 365/4/2 368/4/2
f 368/4/2 365/4/2 369/4/2
f 367/4/2 368/4/2 370/4/2
f 370/4/2 368/4/2 371/4/2
f 372/4/2 373/4/2 376/4/2
f 376/4/2 373/4/2 377/4/2
f 374/4/2 375/4/2 378/4/2
f 378/4/2 375/4/2 379/4/2
f 377/4/2 373/4/2 380/4/2
f 377/4/2 380/4/2 385/4/2
f 380/4/2 381/4/2 385/4/2
f 385/4/2 381/4/2 386/4/2
f 383/4/2 384/4/2 387/4/2
f 382/4/2 383/4/2 387/4/2
f 387/4/2 384/4/2 388/4/2
f 377/4/2 385/4/2 389/4/2
f 377/4/2 389/4/2 390/4/2
f 390/4/2 389/4/2 391/4/2
f 392/4/2 393/4/2 397/4/2
f 393/4/2 394/4/2 397/4/2
f 397/4/2 394/4/2 398/4/2
f 395/4/2 396/4/2 399/4/2
f 399/4/2 396/4/2 400/4/2
f 401/4/2 402/4/2 403/4/2
f 403/4/2 402/4/2 404/4/2
f 405/16/2 406/16/2 407/16/2
f 407/16/2 406/16/2 408/16/2
f 407/11/2 408/11/2 409/11/2
f 409/11/2 408/11/2 410/11/2
f 409/14/2 410/14/2 411/14/2
f 411/14/2 410/14/2 412/14/2
f 413/4/2 414/4/2 415/4/2
f 415/4/2 414/4/2 416/4/2
f 417/5/2 418/5/2 419/5/2
f 419/5/2 418/5/2 420/5/2
f 421/4/2 422/4/2 423/4/2
f 423/4/2 422/4/2 424/4/2
f 425/4/2 426/4/2 429/4/2
f 429/4/2 426/4/2 430/4/2
f 427/12/2 428/12/2 432/12/2
f 432/12/2 428/12/2 433/12/2
f 430/4/2 431/4/2 434/4/2
f 434/4/2 431/4/2 435/4/2
f 436/4/2 437/4/2 438/4/2
f 438/4/2 437/4/2 439/4/2
f 440/4/2 441/4/2 442/4/2
f 442/4/2 441/4/2 443/4/2
f 444/13/2 445/13/2 446/13/2
f 446/13/2 445/13/2 447/13/2
f 448/4/2 449/4/2 451/4/2
f 451/4/2 449/4/2 452/4/2
f 453/4/2 454/4/2 455/4/2
f 455/4/2 454/4/2 456/4/2
f 450/4/2 451/4/2 457/4/2
f 457/4/2 451/4/2 458/4/2
f 459/4/2 460/4/2 461/4/2
f 461/4/2 460/4/2 462/4/2
f 463/7/2 464/7/2 465/7/2
f 465/7/2 464/7/2 466/7/2
f 466/7/2 467/7/2 470/7/2
f 470/7/2 467/7/2 471/7/2
f 470/6/2 471/6/2 472/6/2
f 472/6/2 471/6/2 473/6/2
f 468/7/2 469/7/2 474/7/2
f 472/5/2 473/5/2 475/5/2
f 475/5/2 473/5/2 476/5/2
f 474/7/2 469/7/2 477/7/2
f 477/7/2 469/7/2 478/7/2
f 476/5/2 477/5/2 479/5/2
f 479/5/2 477/5/2 480/5/2
f 480/5/2 477/5/2 481/5/2
f 481/5/2 477/5/2 482/5/2
f 483/4/2 484/4/2 485/4/2
f 485/4/2 484/4/2 486/4/2
f 487/4/2 488/4/2 492/4/2
f 492/4/2 488/4/2 493/4/2
f 489/4/2 490/4/2 494/4/2
f 494/4/2 490/4/2 495/4/2
f 491/4/2 492/4/2 496/4/2
f 496/4/2 492/4/2 497/4/2
f 498/16/2 499/16/2 500/16/2
f 500/16/2 499/16/2 501/16/2
f 500/11/2 501/11/2 502/11/2
f 502/11/2 501/11/2 503/11/2
f 502/14/2 503/14/2 506/14/2
f 506/14/2 503/14/2 507/14/2
f 504/5/2 505/5/2 510/5/2
f 510/5/2 505/5/2 511/5/2
f 508/5/2 509/5/2 513/5/2
f 513/5/2 509/5/2 514/5/2
f 511/7/2 512/7/2 515/7/2
f 510/7/2 511/7/2 515/7/2
f 515/7/2 512/7/2 516/7/2
f 516/7/2 512/7/2 521/7/2
f 521/7/2 512/7/2 522/7/2
f 517/7/2 518/7/2 525/7/2
f 518/4/2 519/4/2 526/4/2
f 525/7/2 518/7/2 526/7/2
f 526/4/2 519/4/2 527/4/2
f 520/4/2 521/4/2 529/4/2
f 529/4/2 521/4/2 530/4/2
f 524/7/2 525/7/2 531/7/2
f 525/7/2 526/7/2 531/7/2
f 531/7/2 526/7/2 532/7/2
f 527/4/2 528/4/2 533/4/2
f 533/4/2 528/4/2 534/4/2
f 522/7/2 523/7/2 535/7/2
f 535/7/2 523/7/2 536/7/2
f 535/11/2 536/11/2 537/11/2
f 537/11/2 536/11/2 538/11/2
f 524/7/2 531/7/2 539/7/2
f 539/7/2 531/7/2 540/7/2
f 537/5/2 538/5/2 543/5/2
f 538/5/2 539/5/2 543/5/2
f 539/5/2 540/5/2 543/5/2
f 543/5/2 540/5/2 544/5/2
f 541/4/2 542/4/2 547/4/2
f 547/4/2 542/4/2 548/4/2
f 545/4/2 546/4/2 549/4/2
f 549/4/2 546/4/2 550/4/2
f 551/4/2 552/4/2 556/4/2
f 556/4/2 552/4/2 557/4/2
f 553/4/2 554/4/2 558/4/2
f 558/4/2 554/4/2 559/4/2
f 555/4/2 556/4/2 561/4/2
f 561/4/2 556/4/2 562/4/2
f 560/4/2 561/4/2 563/4/2
f 563/4/2 561/4/2 564/4/2
f 565/5/2 566/5/2 567/5/2
f 567/5/2 566/5/2 568/5/2
f 568/5/2 566/5/2 569/5/2
f 569/7/2 570/7/2 571/7/2
f 568/7/2 569/7/2 571/7/2
f 571/7/2 570/7/2 572/7/2
f 572/7/2 570/7/2 573/7/2
f 573/7/2 570/7/2 574/7/2
f 568/7/2 571/7/2 575/7/2
f 575/7/2 571/7/2 576/7/2
f 572/7/2 573/7/2 577/7/2
f 577/7/2 573/7/2 578/7/2
f 579/4/2 580/4/2 585/4/2
f 585/4/2 580/4/2 586/4/2
f 586/4/2 580/4/2 587/4/2
f 583/7/2 584/7/2 589/7/2
f 589/7/2 584/7/2 590/7/2
f 581/4/2 582/4/2 591/4/2
f 591/4/2 582/4/2 592/4/2
f 587/4/2 588/4/2 595/4/2
f 586/4/2 587/4/2 595/4/2
f 595/4/2 588/4/2 596/4/2
f 586/4/2 595/4/2 598/4/2
f 597/4/2 598/4/2 599/4/2
f 598/4/2 595/4/2 600/4/2
f 599/4/2 598/4/2 600/4/2
f 600/4/2 595/4/2 601/4/2
f 593/4/2 594/4/2 603/4/2
f 600/4/2 601/4/2 604/4/2
f 602/4/2 603/4/2 606/4/2
f 603/4/2 594/4/2 607/4/2
f 606/4/2 603/4/2 607/4/2
f 607/4/2 594/4/2 608/4/2
f 604/4/2 605/4/2 609/4/2
f 605/4/2 606/4/2 609/4/2
f 606/4/2 607/4/2 609/4/2
f 600/4/2 604/4/2 609/4/2
f 609/4/2 607/4/2 610/4/2
f 610/4/2 607/4/2 611/4/2
f 611/4/2 607/4/2 612/4/2
f 610/4/2 611/4/2 613/4/2
f 613/4/2 611/4/2 614/4/2
f 615/1/2 616/1/2 617/1/2
f 617/1/2 616/1/2 618/1/2
f 621/4/2 622/4/2 623/4/2
f 621/4/2 623/4/2 625/4/2
f 623/4/2 624/4/2 625/4/2
f 625/4/2 624/4/2 626/4/2
f 619/4/2 620/4/2 628/4/2
f 627/4/2 628/4/2 629/4/2
f 628/4/2 620/4/2 629/4/2
f 629/4/2 620/4/2 630/4/2
f 626/4/2 624/4/2 631/4/2
f 627/4/2 629/4/2 634/4/2
f 631/4/2 632/4/2 636/4/2
f 626/4/2 631/4/2 636/4/2
f 636/4/2 632/4/2 637/4/2
f 633/4/2 634/4/2 638/4/2
f 636/4/2 637/4/2 639/4/2
f 637/4/2 638/4/2 639/4/2
f 635/4/2 636/4/2 639/4/2
f 639/4/2 638/4/2 640/4/2
f 638/4/2 634/4/2 641/4/2
f 640/4/2 638/4/2 641/4/2
f 634/4/2 629/4/2 641/4/2
f 641/4/2 629/4/2 642/4/2
f 640/4/2 641/4/2 643/4/2
f 643/4/2 641/4/2 644/4/2
f 645/4/2 646/4/2 650/4/2
f 650/4/2 646/4/2 651/4/2
f 647/4/2 648/4/2 652/4/2
f 652/4/2 648/4/2 653/4/2
f 653/4/2 648/4/2 654/4/2
f 649/4/2 650/4/2 656/4/2
f 654/4/2 655/4/2 657/4/2
f 655/4/2 656/4/2 657/4/2
f 653/4/2 654/4/2 657/4/2
f 657/4/2 656/4/2 658/4/2
f 656/4/2 650/4/2 659/4/2
f 658/4/2 656/4/2 659/4/2
f 659/4/2 650/4/2 660/4/2
f 658/4/2 659/4/2 661/4/2
f 661/4/2 659/4/2 662/4/2
f 662/4/2 659/4/2 663/4/2
f 663/4/2 659/4/2 664/4/2
f 662/4/2 663/4/2 665/4/2
f 665/4/2 663/4/2 666/4/2
f 667/17/2 668/17/2 669/17/2
f 669/17/2 668/17/2 670/17/2
f 671/4/2 672/4/2 673/4/2
f 673/4/2 672/4/2 674/4/2
f 680/4/3 676/4/3 675/4/3
f 681/4/3 676/4/3 680/4/3
f 682/4/3 676/4/3 681/4/3
f 683/4/3 678/4/3 677/4/3
f 685/4/3 680/4/3 679/4/3
f 685/4/3 681/4/3 680/4/3
f 686/4/3 681/4/3 685/4/3
f 687/4/3 684/4/3 683/4/3
f 687/4/3 683/4/3 677/4/3
f 688/4/3 684/4/3 687/4/3
f 689/4/3 684/4/3 688/4/3
f 691/4/3 690/4/3 689/4/3
f 691/4/3 689/4/3 688/4/3
f 692/4/3 690/4/3 691/4/3
f 693/4/3 690/4/3 692/4/3
f 694/4/3 690/4/3 693/4/3
f 699/4/3 696/4/3 695/4/3
f 700/4/3 696/4/3 699/4/3
f 701/4/3 696/4/3 700/4/3
f 704/4/3 698/4/3 697/4/3
f 705/4/3 698/4/3 704/4/3
f 706/4/3 702/4/3 701/4/3
f 706/4/3 701/4/3 700/4/3
f 707/4/3 702/4/3 706/4/3
f 708/4/3 704/4/3 703/4/3
f 709/4/3 704/4/3 708/4/3
f 717/4/3 711/4/3 710/4/3
f 718/4/3 711/4/3 717/4/3
f 719/4/3 713/4/3 712/4/3
f 720/4/3 713/4/3 719/4/3
f 721/4/3 713/4/3 720/4/3
f 723/7/3 716/7/3 715/7/3
f 725/4/3 722/4/3 721/4/3
f 725/4/3 721/4/3 720/4/3
f 726/4/3 722/4/3 725/4/3
f 730/4/3 722/4/3 726/4/3
f 732/7/3 724/7/3 723/7/3
f 732/7/3 723/7/3 715/7/3
f 732/5/3 715/5/3 714/5/3
f 733/7/3 724/7/3 732/7/3
f 734/4/3 728/4/3 727/4/3
f 734/4/3 729/4/3 728/4/3
f 735/4/3 729/4/3 734/4/3
f 736/6/3 733/6/3 732/6/3
f 736/5/3 732/5/3 714/5/3
f 737/7/3 724/7/3 733/7/3
f 737/6/3 733/6/3 736/6/3
f 738/4/3 729/4/3 735/4/3
f 739/4/3 729/4/3 738/4/3
f 740/4/3 731/4/3 730/4/3
f 740/4/3 730/4/3 726/4/3
f 741/4/3 731/4/3 740/4/3
f 742/4/3 731/4/3 741/4/3
f 743/7/3 724/7/3 737/7/3
f 743/7/3 737/7/3 736/7/3
f 744/7/3 724/7/3 743/7/3
f 745/4/3 741/4/3 740/4/3
f 745/4/3 740/4/3 739/4/3
f 746/5/3 736/5/3 714/5/3
f 747/7/3 743/7/3 736/7/3
f 747/5/3 736/5/3 746/5/3
f 748/7/3 743/7/3 747/7/3
f 752/4/3 741/4/3 745/4/3
f 753/4/3 741/4/3 752/4/3
f 754/4/3 741/4/3 753/4/3
f 755/4/3 750/4/3 749/4/3
f 756/4/3 750/4/3 755/4/3
f 757/4/3 753/4/3 752/4/3
f 757/4/3 752/4/3 751/4/3
f 758/4/3 753/4/3 757/4/3
f 761/4/3 760/4/3 759/4/3
f 762/4/3 760/4/3 761/4/3
f 768/4/3 763/4/3 762/4/3
f 769/4/3 763/4/3 768/4/3
f 770/4/3 763/4/3 769/4/3
f 771/4/3 765/4/3 764/4/3
f 772/4/3 765/4/3 771/4/3
f 775/5/3 767/5/3 766/5/3
f 776/5/3 767/5/3 775/5/3
f 782/4/3 774/4/3 773/4/3
f 783/4/3 774/4/3 782/4/3
f 784/7/3 778/7/3 777/7/3
f 785/7/3 778/7/3 784/7/3
f 789/9/3 780/9/3 779/9/3
f 790/11/3 781/11/3 780/11/3
f 790/9/3 780/9/3 789/9/3
f 791/11/3 781/11/3 790/11/3
f 795/7/3 786/7/3 785/7/3
f 795/6/3 787/6/3 786/6/3
f 796/5/3 788/5/3 787/5/3
f 796/6/3 787/6/3 795/6/3
f 797/5/3 788/5/3 796/5/3
f 798/10/3 790/10/3 789/10/3
f 799/12/3 791/12/3 790/12/3
f 799/10/3 790/10/3 798/10/3
f 800/15/3 792/15/3 791/15/3
f 800/12/3 791/12/3 799/12/3
f 801/15/3 792/15/3 800/15/3
f 802/4/3 794/4/3 793/4/3
f 803/4/3 794/4/3 802/4/3
f 804/7/3 795/7/3 785/7/3
f 805/7/3 795/7/3 804/7/3
f 806/14/3 799/14/3 798/14/3
f 806/14/3 800/14/3 799/14/3
f 808/6/3 805/6/3 804/6/3
f 809/7/3 795/7/3 805/7/3
f 809/6/3 805/6/3 808/6/3
f 810/11/3 796/11/3 795/11/3
f 810/7/3 795/7/3 809/7/3
f 811/6/3 797/6/3 796/6/3
f 811/11/3 796/11/3 810/11/3
f 812/6/3 797/6/3 811/6/3
f 813/14/3 807/14/3 806/14/3
f 813/14/3 806/14/3 798/14/3
f 814/14/3 807/14/3 813/14/3
f 815/14/3 807/14/3 814/14/3
f 816/14/3 807/14/3 815/14/3
f 821/7/3 810/7/3 809/7/3
f 821/7/3 809/7/3 808/7/3
f 822/6/3 811/6/3 810/6/3
f 822/7/3 810/7/3 821/7/3
f 823/5/3 812/5/3 811/5/3
f 823/6/3 811/6/3 822/6/3
f 824/5/3 812/5/3 823/5/3
f 825/10/3 814/10/3 813/10/3
f 826/3/3 815/3/3 814/3/3
f 826/10/3 814/10/3 825/10/3
f 827/8/3 816/8/3 815/8/3
f 827/3/3 815/3/3 826/3/3
f 828/2/3 817/2/3 816/2/3
f 828/8/3 816/8/3 827/8/3
f 829/2/3 817/2/3 828/2/3
f 830/4/3 819/4/3 818/4/3
f 831/4/3 819/4/3 830/4/3
f 834/7/3 821/7/3 820/7/3
f 835/7/3 821/7/3 834/7/3
f 836/9/3 826/9/3 825/9/3
f 837/11/3 827/11/3 826/11/3
f 837/9/3 826/9/3 836/9/3
f 838/1/3 828/1/3 827/1/3
f 838/11/3 827/11/3 837/11/3
f 839/1/3 828/1/3 838/1/3
f 842/5/3 833/5/3 832/5/3
f 843/5/3 833/5/3 842/5/3
f 849/4/3 841/4/3 840/4/3
f 850/4/3 841/4/3 849/4/3
f 852/4/3 845/4/3 844/4/3
f 853/4/3 845/4/3 852/4/3
f 854/4/3 847/4/3 846/4/3
f 855/17/3 848/17/3 847/17/3
f 855/4/3 847/4/3 854/4/3
f 856/17/3 848/17/3 855/17/3
f 858/4/3 852/4/3 851/4/3
f 859/4/3 852/4/3 858/4/3
f 860/17/3 857/17/3 856/17/3
f 860/17/3 856/17/3 855/17/3
f 861/17/3 857/17/3 860/17/3
f 864/4/3 863/4/3 862/4/3
f 865/4/3 863/4/3 864/4/3
f 871/4/3 866/4/3 865/4/3
f 872/4/3 866/4/3 871/4/3
f 873/4/3 868/4/3 867/4/3
f 874/4/3 868/4/3 873/4/3
f 879/7/3 870/7/3 869/7/3
f 880/7/3 870/7/3 879/7/3
f 886/7/3 881/7/3 880/7/3
f 887/11/3 882/11/3 881/11/3
f 887/7/3 881/7/3 886/7/3
f 888/5/3 883/5/3 882/5/3
f 888/11/3 882/11/3 887/11/3
f 889/5/3 883/5/3 888/5/3
f 891/4/3 885/4/3 884/4/3
f 892/4/3 885/4/3 891/4/3
f 893/16/3 876/16/3 875/16/3
f 894/11/3 877/11/3 876/11/3
f 894/16/3 876/16/3 893/16/3
f 895/14/3 878/14/3 877/14/3
f 895/11/3 877/11/3 894/11/3
f 896/14/3 878/14/3 895/14/3
f 897/5/3 890/5/3 889/5/3
f 898/5/3 890/5/3 897/5/3
f 908/5/3 904/5/3 903/5/3
f 909/5/3 904/5/3 908/5/3
f 912/16/3 900/16/3 899/16/3
f 913/11/3 901/11/3 900/11/3
f 913/16/3 900/16/3 912/16/3
f 914/14/3 902/14/3 901/14/3
f 914/11/3 901/11/3 913/11/3
f 915/14/3 902/14/3 914/14/3
f 917/7/3 906/7/3 905/7/3
f 918/11/3 907/11/3 906/11/3
f 918/7/3 906/7/3 917/7/3
f 919/5/3 908/5/3 907/5/3
f 919/11/3 907/11/3 918/11/3
f 920/5/3 908/5/3 919/5/3
f 921/4/3 911/4/3 910/4/3
f 922/4/3 911/4/3 921/4/3
f 923/7/3 917/7/3 916/7/3
f 924/7/3 917/7/3 923/7/3
f 929/4/3 926/4/3 925/4/3
f 930/4/3 926/4/3 929/4/3
f 931/4/3 928/4/3 927/4/3
f 932/4/3 928/4/3 931/4/3
f 935/4/3 934/4/3 933/4/3
f 936/4/3 934/4/3 935/4/3
f 942/4/3 938/4/3 937/4/3
f 943/4/3 938/4/3 942/4/3
f 946/1/3 940/1/3 939/1/3
f 947/7/3 941/7/3 940/7/3
f 947/1/3 940/1/3 946/1/3
f 948/7/3 941/7/3 947/7/3
f 950/4/3 945/4/3 944/4/3
f 951/4/3 945/4/3 950/4/3
f 952/7/3 949/7/3 948/7/3
f 952/7/3 948/7/3 947/7/3
f 953/7/3 949/7/3 952/7/3
f 954/7/3 949/7/3 953/7/3
f 957/1/3 956/1/3 955/1/3
f 958/1/3 956/1/3 957/1/3
f 963/7/3 960/7/3 959/7/3
f 963/7/3 961/7/3 960/7/3
f 964/7/3 961/7/3 963/7/3
f 965/7/3 961/7/3 964/7/3
f 966/1/3 963/1/3 962/1/3
f 967/7/3 964/7/3 963/7/3
f 967/1/3 963/1/3 966/1/3
f 968/7/3 964/7/3 967/7/3
f 973/4/3 970/4/3 969/4/3
f 974/4/3 970/4/3 973/4/3
f 975/4/3 972/4/3 971/4/3
f 976/4/3 972/4/3 975/4/3
f 979/4/3 978/4/3 977/4/3
f 980/4/3 978/4/3 979/4/3
f 983/12/3 982/12/3 981/12/3
f 984/12/3 982/12/3 983/12/3
f 987/4/3 986/4/3 985/4/3
f 988/4/3 986/4/3 987/4/3
f 991/4/3 990/4/3 989/4/3
f 992/4/3 991/4/3 989/4/3
f 993/4/3 991/4/3 992/4/3
f 996/4/3 995/4/3 994/4/3
f 997/4/3 995/4/3 996/4/3
f 1000/4/3 999/4/3 998/4/3
f 1001/4/3 999/4/3 1000/4/3
f 1004/4/3 1003/4/3 1002/4/3
f 1005/4/3 1003/4/3 1004/4/3
f 1006/4/3 1003/4/3 1005/4/3
f 1008/4/3 1007/4/3 1006/4/3
f 1008/4/3 1006/4/3 1005/4/3
f 1009/4/3 1007/4/3 1008/4/3
f 1010/4/3 1007/4/3 1009/4/3
f 1012/4/3 1011/4/3 1010/4/3
f 1012/4/3 1010/4/3 1009/4/3
f 1013/4/3 1011/4/3 1012/4/3
f 1014/4/3 1011/4/3 1013/4/3
f 1015/4/3 1014/4/3 1013/4/3
f 1016/4/3 1014/4/3 1015/4/3
f 1020/4/3 1018/4/3 1017/4/3
f 1021/4/3 1018/4/3 1020/4/3
f 1023/4/3 1020/4/3 1019/4/3
f 1023/4/3 1021/4/3 1020/4/3
f 1024/4/3 1021/4/3 1023/4/3
f 1025/4/3 1021/4/3 1024/4/3
f 1027/4/3 1023/4/3 1022/4/3
f 1027/4/3 1024/4/3 1023/4/3
f 1028/4/3 1024/4/3 1027/4/3
f 1029/4/3 1024/4/3 1028/4/3
f 1030/4/3 1027/4/3 1026/4/3
f 1030/4/3 1028/4/3 1027/4/3
f 1031/4/3 1028/4/3 1030/4/3
f 1032/4/3 1030/4/3 1026/4/3
f 1033/4/3 1030/4/3 1032/4/3
f 1034/4/4 1035/4/4 1036/4/4
f 1036/4/4 1035/4/4 1037/4/4
f 1038/4/4 1039/4/4 1041/4/4
f 1041/4/4 1039/4/4 1042/4/4
f 1040/4/4 1041/4/4 1043/4/4
f 1043/4/4 1041/4/4 1044/4/4
f 1045/4/4 1046/4/4 1047/4/4
f 1047/4/4 1046/4/4 1048/4/4
f 1048/4/4 1046/4/4 1049/4/4
f 1048/4/4 1049/4/4 1050/4/4
f 1050/4/4 1049/4/4 1051/4/4
f 1052/4/4 1053/4/4 1054/4/4
f 1054/4/4 1053/4/4 1055/4/4
f 1056/4/4 1057/4/4 1058/4/4
f 1058/4/4 1057/4/4 1059/4/4
f 1060/4/4 1061/4/4 1063/4/4
f 1061/4/4 1062/4/4 1063/4/4
f 1063/4/4 1062/4/4 1064/4/4
f 1065/17/4 1066/17/4 1068/17/4
f 1066/17/4 1067/17/4 1068/17/4
f 1068/17/4 1067/17/4 1069/17/4
f 1070/12/4 1071/12/4 1072/12/4
f 1072/12/4 1071/12/4 1073/12/4
f 1074/4/4 1075/4/4 1076/4/4
f 1076/4/4 1075/4/4 1077/4/4
f 1078/4/4 1079/4/4 1080/4/4
f 1078/4/4 1080/4/4 1081/4/4
f 1081/4/4 1080/4/4 1082/4/4
f 1083/16/4 1084/16/4 1087/16/4
f 1084/11/4 1085/11/4 1088/11/4
f 1087/16/4 1084/16/4 1088/16/4
f 1085/14/4 1086/14/4 1089/14/4
f 1088/11/4 1085/11/4 1089/11/4
f 1089/14/4 1086/14/4 1090/14/4
f 1091/16/4 1092/16/4 1095/16/4
f 1092/11/4 1093/11/4 1096/11/4
f 1095/16/4 1092/16/4 1096/16/4
f 1093/14/4 1094/14/4 1097/14/4
f 1096/11/4 1093/11/4 1097/11/4
f 1097/14/4 1094/14/4 1098/14/4
f 1099/4/4 1100/4/4 1104/4/4
f 1104/4/4 1100/4/4 1105/4/4
f 1101/1/4 1102/1/4 1108/1/4
f 1102/7/4 1103/7/4 1109/7/4
f 1108/1/4 1102/1/4 1109/1/4
f 1109/7/4 1103/7/4 1110/7/4
f 1106/4/4 1107/4/4 1112/4/4
f 1112/4/4 1107/4/4 1113/4/4
f 1110/7/4 1111/7/4 1114/7/4
f 1109/7/4 1110/7/4 1114/7/4
f 1114/7/4 1111/7/4 1115/7/4
f 1116/7/4 1117/7/4 1119/7/4
f 1119/7/4 1117/7/4 1120/7/4
f 1120/7/4 1117/7/4 1121/7/4
f 1118/1/4 1119/1/4 1122/1/4
f 1119/7/4 1120/7/4 1123/7/4
f 1122/1/4 1119/1/4 1123/1/4
f 1123/7/4 1120/7/4 1124/7/4
f 1124/7/4 1120/7/4 1125/7/4
f 1123/4/4 1124/4/4 1128/4/4
f 1126/4/4 1127/4/4 1129/4/4
f 1129/4/4 1127/4/4 1130/4/4
f 1123/4/4 1128/4/4 1131/4/4
f 1131/4/4 1128/4/4 1132/4/4
f 1133/4/4 1134/4/4 1135/4/4
f 1135/4/4 1134/4/4 1136/4/4
f 1137/4/4 1138/4/4 1143/4/4
f 1143/4/4 1138/4/4 1144/4/4
f 1139/5/4 1140/5/4 1147/5/4
f 1147/5/4 1140/5/4 1148/5/4
f 1141/7/4 1142/7/4 1149/7/4
f 1149/7/4 1142/7/4 1150/7/4
f 1145/4/4 1146/4/4 1154/4/4
f 1154/4/4 1146/4/4 1155/4/4
f 1151/7/4 1152/7/4 1157/7/4
f 1152/5/4 1153/5/4 1158/5/4
f 1157/7/4 1152/7/4 1158/7/4
f 1158/5/4 1153/5/4 1159/5/4
f 1155/4/4 1156/4/4 1161/4/4
f 1161/4/4 1156/4/4 1162/4/4
f 1159/5/4 1160/5/4 1163/5/4
f 1163/5/4 1160/5/4 1164/5/4
f 1165/5/4 1166/5/4 1169/5/4
f 1169/5/4 1166/5/4 1170/5/4
f 1167/7/4 1168/7/4 1177/7/4
f 1168/5/4 1169/5/4 1178/5/4
f 1177/7/4 1168/7/4 1178/7/4
f 1178/5/4 1169/5/4 1179/5/4
f 1171/4/4 1172/4/4 1181/4/4
f 1181/4/4 1172/4/4 1182/4/4
f 1173/5/4 1174/5/4 1183/5/4
f 1183/5/4 1174/5/4 1184/5/4
f 1175/7/4 1176/7/4 1185/7/4
f 1185/7/4 1176/7/4 1186/7/4
f 1180/4/4 1181/4/4 1189/4/4
f 1189/4/4 1181/4/4 1190/4/4
f 1187/4/4 1188/4/4 1193/4/4
f 1193/4/4 1188/4/4 1194/4/4
f 1191/4/4 1192/4/4 1195/4/4
f 1195/4/4 1192/4/4 1196/4/4
f 1197/4/4 1198/4/4 1200/4/4
f 1200/4/4 1198/4/4 1201/4/4
f 1199/4/4 1200/4/4 1203/4/4
f 1201/4/4 1202/4/4 1203/4/4
f 1200/4/4 1201/4/4 1203/4/4
f 1203/4/4 1202/4/4 1204/4/4
f 1205/4/4 1206/4/4 1209/4/4
f 1209/4/4 1206/4/4 1210/4/4
f 1207/7/4 1208/7/4 1214/7/4
f 1214/7/4 1208/7/4 1215/7/4
f 1211/4/4 1212/4/4 1216/4/4
f 1216/4/4 1212/4/4 1217/4/4
f 1217/4/4 1218/4/4 1219/4/4
f 1219/4/4 1218/4/4 1220/4/4
f 1214/7/4 1215/7/4 1222/7/4
f 1214/7/4 1222/7/4 1224/7/4
f 1222/7/4 1223/7/4 1224/7/4
f 1224/7/4 1223/7/4 1225/7/4
f 1220/4/4 1221/4/4 1227/4/4
f 1227/4/4 1221/4/4 1228/4/4
f 1213/5/4 1214/5/4 1229/5/4
f 1214/7/4 1224/7/4 1230/7/4
f 1229/5/4 1214/5/4 1230/5/4
f 1230/7/4 1224/7/4 1231/7/4
f 1226/4/4 1227/4/4 1233/4/4
f 1233/4/4 1227/4/4 1234/4/4
f 1230/7/4 1231/7/4 1235/7/4
f 1235/7/4 1231/7/4 1236/7/4
f 1232/4/4 1233/4/4 1239/4/4
f 1239/4/4 1233/4/4 1240/4/4
f 1237/4/4 1238/4/4 1243/4/4
f 1243/4/4 1238/4/4 1244/4/4
f 1241/4/4 1242/4/4 1245/4/4
f 1245/4/4 1242/4/4 1246/4/4
f 1247/4/4 1248/4/4 1251/4/4
f 1251/4/4 1248/4/4 1252/4/4
f 1252/4/4 1248/4/4 1253/4/4
f 1249/4/4 1250/4/4 1254/4/4
f 1254/4/4 1250/4/4 1255/4/4
f 1252/4/4 1253/4/4 1258/4/4
f 1253/4/4 1254/4/4 1258/4/4
f 1258/4/4 1254/4/4 1259/4/4
f 1255/4/4 1256/4/4 1261/4/4
f 1261/4/4 1256/4/4 1262/4/4
f 1262/4/4 1256/4/4 1263/4/4
f 1257/4/4 1258/4/4 1265/4/4
f 1259/4/4 1260/4/4 1266/4/4
f 1266/4/4 1260/4/4 1267/4/4
f 1263/4/4 1264/4/4 1268/4/4
f 1262/4/4 1263/4/4 1268/4/4
f 1268/4/4 1264/4/4 1269/4/4
f 1269/4/4 1264/4/4 1270/4/4
f 1257/4/4 1265/4/4 1272/4/4
f 1265/4/4 1266/4/4 1272/4/4
f 1272/4/4 1266/4/4 1273/4/4
f 1273/4/4 1266/4/4 1274/4/4
f 1270/4/4 1271/4/4 1276/4/4
f 1269/4/4 1270/4/4 1276/4/4
f 1276/4/4 1271/4/4 1277/4/4
f 1257/4/4 1272/4/4 1278/4/4
f 1278/4/4 1272/4/4 1279/4/4
f 1274/4/4 1275/4/4 1280/4/4
f 1273/4/4 1274/4/4 1280/4/4
f 1280/4/4 1275/4/4 1281/4/4
f 1279/4/4 1280/4/4 1283/4/4
f 1283/4/4 1280/4/4 1284/4/4
f 1277/4/4 1271/4/4 1287/4/4
f 1284/4/4 1285/4/4 1288/4/4
f 1283/4/4 1284/4/4 1288/4/4
f 1282/4/4 1283/4/4 1288/4/4
f 1288/4/4 1285/4/4 1289/4/4
f 1286/4/4 1287/4/4 1291/4/4
f 1287/4/4 1271/4/4 1292/4/4
f 1291/4/4 1287/4/4 1292/4/4
f 1292/4/4 1271/4/4 1293/4/4
f 1282/4/4 1288/4/4 1294/4/4
f 1294/4/4 1288/4/4 1295/4/4
f 1290/4/4 1291/4/4 1298/4/4
f 1291/4/4 1292/4/4 1298/4/4
f 1298/4/4 1292/4/4 1299/4/4
f 1299/4/4 1292/4/4 1300/4/4
f 1295/4/4 1296/4/4 1302/4/4
f 1302/4/4 1296/4/4 1303/4/4
f 1298/4/4 1299/4/4 1304/4/4
f 1297/4/4 1298/4/4 1304/4/4
f 1304/4/4 1299/4/4 1305/4/4
f 1305/4/4 1299/4/4 1306/4/4
f 1302/4/4 1303/4/4 1307/4/4
f 1301/4/4 1302/4/4 1307/4/4
f 1304/4/4 1305/4/4 1307/4/4
f 1303/4/4 1304/4/4 1307/4/4
f 1307/4/4 1305/4/4 1308/4/4
f 1301/4/4 1307/4/4 1309/4/4
f 1309/4/4 1307/4/4 1310/4/4
f 1311/4/4 1312/4/4 1313/4/4
f 1313/4/4 1312/4/4 1314/4/4
f 1314/4/4 1315/4/4 1317/4/4
f 1317/4/4 1315/4/4 1318/4/4
f 1318/4/4 1315/4/4 1319/4/4
f 1316/4/4 1317/4/4 1321/4/4
f 1321/4/4 1317/4/4 1322/4/4
f 1319/4/4 1320/4/4 1323/4/4
f 1318/4/4 1319/4/4 1323/4/4
f 1323/4/4 1320/4/4 1324/4/4
f 1324/4/4 1325/4/4 1328/4/4
f 1322/4/4 1323/4/4 1328/4/4
f 1323/4/4 1324/4/4 1328/4/4
f 1328/4/4 1325/4/4 1329/4/4
f 1329/4/4 1325/4/4 1330/4/4
f 1326/4/4 1327/4/4 1332/4/4
f 1332/4/4 1327/4/4 1333/4/4
f 1330/4/4 1331/4/4 1334/4/4
f 1329/4/4 1330/4/4 1334/4/4
f 1333/4/4 1334/4/4 1335/4/4
f 1335/4/4 1334/4/4 1336/4/4
f 1334/4/4 1331/4/4 1337/4/4
f 1336/4/4 1334/4/4 1337/4/4
f 1337/4/4 1331/4/4 1338/4/4
f 1336/4/4 1337/4/4 1340/4/4
f 1340/4/4 1337/4/4 1341/4/4
f 1341/4/4 1337/4/4 1342/4/4
f 1339/4/4 1340/4/4 1343/4/4
f 1340/4/4 1341/4/4 1343/4/4
f 1343/4/4 1341/4/4 1344/4/4
f 1344/4/4 1341/4/4 1345/4/4
f 1345/4/4 1341/4/4 1346/4/4
f 1344/4/4 1345/4/4 1347/4/4
f 1347/4/4 1345/4/4 1348/4/4
f 1353/16/5 1350/16/5 1349/16/5
f 1354/16/5 1350/16/5 1353/16/5
f 1355/16/5 1352/16/5 1351/16/5
f 1356/16/5 1352/16/5 1355/16/5
f 1360/5/5 1358/5/5 1357/5/5
f 1361/5/5 1358/5/5 1360/5/5
f 1363/5/5 1360/5/5 1359/5/5
f 1363/5/5 1362/5/5 1361/5/5
f 1363/5/5 1361/5/5 1360/5/5
f 1364/5/5 1362/5/5 1363/5/5
f 1365/5/5 1362/5/5 1364/5/5
f 1366/5/5 1362/5/5 1365/5/5
f 1367/5/5 1363/5/5 1359/5/5
f 1368/5/5 1365/5/5 1364/5/5
f 1369/5/5 1365/5/5 1368/5/5
f 1370/5/5 1362/5/5 1366/5/5
f 1371/5/5 1369/5/5 1368/5/5
f 1371/5/5 1370/5/5 1369/5/5
f 1371/5/5 1367/5/5 1359/5/5
f 1371/5/5 1368/5/5 1367/5/5
f 1372/5/5 1370/5/5 1371/5/5
f 1373/5/5 1362/5/5 1370/5/5
f 1373/5/5 1370/5/5 1372/5/5
f 1374/5/5 1362/5/5 1373/5/5
f 1375/5/5 1373/5/5 1372/5/5
f 1376/5/5 1373/5/5 1375/5/5
f 1381/7/5 1378/7/5 1377/7/5
f 1382/7/5 1378/7/5 1381/7/5
f 1383/7/5 1380/7/5 1379/7/5
f 1384/7/5 1380/7/5 1383/7/5
f 1389/1/5 1386/1/5 1385/1/5
f 1390/1/5 1386/1/5 1389/1/5
f 1391/1/5 1388/1/5 1387/1/5
f 1392/1/5 1388/1/5 1391/1/5
f 1395/4/5 1394/4/5 1393/4/5
f 1396/4/5 1394/4/5 1395/4/5
f 1404/4/5 1397/4/5 1396/4/5
f 1405/4/5 1397/4/5 1404/4/5
f 1406/4/5 1399/4/5 1398/4/5
f 1407/4/5 1399/4/5 1406/4/5
f 1408/4/5 1401/4/5 1400/4/5
f 1409/4/5 1401/4/5 1408/4/5
f 1410/4/5 1403/4/5 1402/4/5
f 1411/4/5 1403/4/5 1410/4/5
f 1416/4/5 1413/4/5 1412/4/5
f 1417/4/5 1415/4/5 1414/4/5
f 1420/4/5 1416/4/5 1412/4/5
f 1421/4/5 1416/4/5 1420/4/5
f 1422/4/5 1415/4/5 1417/4/5
f 1423/4/5 1415/4/5 1422/4/5
f 1427/4/5 1419/4/5 1418/4/5
f 1428/4/5 1419/4/5 1427/4/5
f 1429/4/5 1425/4/5 1424/4/5
f 1430/4/5 1425/4/5 1429/4/5
f 1432/4/5 1428/4/5 1427/4/5
f 1432/4/5 1427/4/5 1426/4/5
f 1433/4/5 1428/4/5 1432/4/5
f 1436/4/5 1431/4/5 1430/4/5
f 1436/4/5 1430/4/5 1429/4/5
f 1437/4/5 1431/4/5 1436/4/5
f 1438/4/5 1435/4/5 1434/4/5
f 1439/4/5 1435/4/5 1438/4/5
f 1442/4/5 1438/4/5 1434/4/5
f 1443/4/5 1438/4/5 1442/4/5
f 1450/4/5 1441/4/5 1440/4/5
f 1451/4/5 1441/4/5 1450/4/5
f 1452/4/5 1445/4/5 1444/4/5
f 1453/4/5 1445/4/5 1452/4/5
f 1456/4/5 1447/4/5 1446/4/5
f 1457/4/5 1447/4/5 1456/4/5
f 1459/4/5 1449/4/5 1448/4/5
f 1460/4/5 1449/4/5 1459/4/5
f 1461/4/5 1454/4/5 1453/4/5
f 1462/4/5 1454/4/5 1461/4/5
f 1463/4/5 1456/4/5 1455/4/5
f 1464/4/5 1456/4/5 1463/4/5
f 1465/4/5 1459/4/5 1458/4/5
f 1466/4/5 1459/4/5 1465/4/5
f 1471/4/5 1468/4/5 1467/4/5
f 1472/4/5 1468/4/5 1471/4/5
f 1475/4/5 1470/4/5 1469/4/5
f 1476/4/5 1470/4/5 1475/4/5
f 1478/4/5 1474/4/5 1473/4/5
f 1479/4/5 1474/4/5 1478/4/5
f 1482/4/5 1477/4/5 1476/4/5
f 1483/4/5 1477/4/5 1482/4/5
f 1486/12/5 1481/12/5 1480/12/5
f 1487/12/5 1481/12/5 1486/12/5
f 1488/4/5 1485/4/5 1484/4/5
f 1489/4/5 1485/4/5 1488/4/5
f 1492/4/5 1491/4/5 1490/4/5
f 1493/4/5 1491/4/5 1492/4/5
f 1500/4/5 1495/4/5 1494/4/5
f 1501/4/5 1495/4/5 1500/4/5
f 1502/4/5 1497/4/5 1496/4/5
f 1503/4/5 1497/4/5 1502/4/5
f 1504/4/5 1499/4/5 1498/4/5
f 1505/4/5 1499/4/5 1504/4/5
f 1508/4/5 1507/4/5 1506/4/5
f 1509/4/5 1507/4/5 1508/4/5
f 1512/4/5 1511/4/5 1510/4/5
f 1513/4/5 1511/4/5 1512/4/5
f 1520/4/5 1515/4/5 1514/4/5
f 1521/4/5 1515/4/5 1520/4/5
f 1522/4/5 1517/4/5 1516/4/5
f 1523/4/5 1517/4/5 1522/4/5
f 1524/4/5 1519/4/5 1518/4/5
f 1525/4/5 1519/4/5 1524/4/5
f 1528/4/5 1527/4/5 1526/4/5
f 1531/4/5 1528/4/5 1526/4/5
f 1532/4/5 1530/4/5 1529/4/5
f 1533/4/5 1531/4/5 1526/4/5
f 1534/4/5 1531/4/5 1533/4/5
f 1535/4/5 1530/4/5 1532/4/5
f 1536/4/5 1530/4/5 1535/4/5
f 1541/4/5 1538/4/5 1537/4/5
f 1542/4/5 1538/4/5 1541/4/5
f 1543/4/5 1540/4/5 1539/4/5
f 1544/4/5 1540/4/5 1543/4/5
f 1547/4/5 1546/4/5 1545/4/5
f 1548/4/5 1546/4/5 1547/4/5
f 1553/4/5 1552/4/5 1551/4/5
f 1554/4/5 1550/4/5 1549/4/5
f 1555/4/5 1553/4/5 1551/4/5
f 1556/4/5 1553/4/5 1555/4/5
f 1557/4/5 1550/4/5 1554/4/5
f 1558/4/5 1550/4/5 1557/4/5
f 1566/9/5 1560/9/5 1559/9/5
f 1567/10/5 1561/10/5 1560/10/5
f 1567/9/5 1560/9/5 1566/9/5
f 1568/14/5 1562/14/5 1561/14/5
f 1568/10/5 1561/10/5 1567/10/5
f 1569/10/5 1563/10/5 1562/10/5
f 1569/14/5 1562/14/5 1568/14/5
f 1570/9/5 1564/9/5 1563/9/5
f 1570/10/5 1563/10/5 1569/10/5
f 1571/14/5 1569/14/5 1568/14/5
f 1572/14/5 1569/14/5 1571/14/5
f 1573/9/5 1564/9/5 1570/9/5
f 1574/9/5 1564/9/5 1573/9/5
f 1575/4/5 1566/4/5 1565/4/5
f 1576/9/5 1567/9/5 1566/9/5
f 1576/4/5 1566/4/5 1575/4/5
f 1577/14/5 1574/14/5 1573/14/5
f 1578/14/5 1574/14/5 1577/14/5
f 1579/9/5 1567/9/5 1576/9/5
f 1582/9/5 1578/9/5 1577/9/5
f 1583/9/5 1579/9/5 1576/9/5
f 1584/14/5 1580/14/5 1579/14/5
f 1584/9/5 1579/9/5 1583/9/5
f 1585/14/5 1580/14/5 1584/14/5
f 1586/14/5 1582/14/5 1581/14/5
f 1587/9/5 1578/9/5 1582/9/5
f 1587/14/5 1582/14/5 1586/14/5
f 1588/9/5 1578/9/5 1587/9/5
f 1593/4/5 1590/4/5 1589/4/5
f 1594/4/5 1590/4/5 1593/4/5
f 1595/4/5 1592/4/5 1591/4/5
f 1596/4/5 1592/4/5 1595/4/5
f 1601/4/5 1598/4/5 1597/4/5
f 1602/4/5 1598/4/5 1601/4/5
f 1605/4/5 1600/4/5 1599/4/5
f 1606/4/5 1600/4/5 1605/4/5
f 1607/4/5 1598/4/5 1602/4/5
f 1608/4/5 1598/4/5 1607/4/5
f 1609/4/5 1604/4/5 1603/4/5
f 1610/4/5 1604/4/5 1609/4/5
f 1615/4/5 1612/4/5 1611/4/5
f 1618/4/5 1615/4/5 1611/4/5
f 1619/4/5 1615/4/5 1618/4/5
f 1620/4/5 1617/4/5 1616/4/5
f 1621/4/5 1617/4/5 1620/4/5
f 1622/4/5 1614/4/5 1613/4/5
f 1623/4/5 1614/4/5 1622/4/5
f 1626/4/5 1625/4/5 1624/4/5
f 1627/4/5 1625/4/5 1626/4/5
f 1629/4/5 1628/4/5 1627/4/5
f 1630/4/5 1628/4/5 1629/4/5
f 1633/17/5 1632/17/5 1631/17/5
f 1634/17/5 1632/17/5 1633/17/5
f 1635/5/6 1636/5/6 1639/5/6
f 1639/5/6 1636/5/6 1640/5/6
f 1637/5/6 1638/5/6 1641/5/6
f 1641/5/6 1638/5/6 1642/5/6
f 1643/7/6 1644/7/6 1647/7/6
f 1647/7/6 1644/7/6 1648/7/6
f 1645/7/6 1646/7/6 1649/7/6
f 1649/7/6 1646/7/6 1650/7/6
f 1651/7/6 1652/7/6 1655/7/6
f 1655/7/6 1652/7/6 1656/7/6
f 1653/7/6 1654/7/6 1657/7/6
f 1657/7/6 1654/7/6 1658/7/6
f 1659/7/6 1660/7/6 1662/7/6
f 1662/7/6 1660/7/6 1663/7/6
f 1663/7/6 1660/7/6 1664/7/6
f 1664/7/6 1660/7/6 1665/7/6
f 1661/7/6 1662/7/6 1668/7/6
f 1668/7/6 1662/7/6 1669/7/6
f 1665/7/6 1666/7/6 1670/7/6
f 1670/7/6 1666/7/6 1671/7/6
f 1667/7/6 1668/7/6 1673/7/6
f 1673/7/6 1668/7/6 1674/7/6
f 1671/7/6 1672/7/6 1677/7/6
f 1677/7/6 1672/7/6 1678/7/6
f 1675/12/6 1676/12/6 1679/12/6
f 1679/12/6 1676/12/6 1680/12/6
f 1681/7/6 1682/7/6 1685/7/6
f 1685/7/6 1682/7/6 1686/7/6
f 1683/7/6 1684/7/6 1687/7/6
f 1687/7/6 1684/7/6 1688/7/6
f 1689/4/6 1690/4/6 1691/4/6
f 1691/4/6 1690/4/6 1692/4/6
f 1693/4/6 1694/4/6 1697/4/6
f 1697/4/6 1694/4/6 1698/4/6
f 1695/4/6 1696/4/6 1699/4/6
f 1699/4/6 1696/4/6 1700/4/6
f 1701/4/6 1702/4/6 1705/4/6
f 1705/4/6 1702/4/6 1706/4/6
f 1703/4/6 1704/4/6 1709/4/6
f 1709/4/6 1704/4/6 1710/4/6
f 1707/4/6 1708/4/6 1715/4/6
f 1715/4/6 1708/4/6 1716/4/6
f 1711/7/6 1712/7/6 1717/7/6
f 1717/7/6 1712/7/6 1718/7/6
f 1713/7/6 1714/7/6 1719/7/6
f 1719/7/6 1714/7/6 1720/7/6
f 1721/4/6 1722/4/6 1723/4/6
f 1723/4/6 1722/4/6 1724/4/6
f 1725/4/6 1726/4/6 1729/4/6
f 1729/4/6 1726/4/6 1730/4/6
f 1727/4/6 1728/4/6 1731/4/6
f 1731/4/6 1728/4/6 1732/4/6
f 1733/4/6 1734/4/6 1738/4/6
f 1738/4/6 1734/4/6 1739/4/6
f 1735/7/6 1736/7/6 1740/7/6
f 1740/7/6 1736/7/6 1741/7/6
f 1737/7/6 1738/7/6 1742/7/6
f 1742/7/6 1738/7/6 1743/7/6
f 1744/4/6 1745/4/6 1748/4/6
f 1748/4/6 1745/4/6 1749/4/6
f 1746/4/6 1747/4/6 1750/4/6
f 1750/4/6 1747/4/6 1751/4/6
f 1752/4/6 1753/4/6 1756/4/6
f 1756/4/6 1753/4/6 1757/4/6
f 1754/4/6 1755/4/6 1758/4/6
f 1758/4/6 1755/4/6 1759/4/6
f 1760/4/6 1761/4/6 1762/4/6
f 1762/4/6 1761/4/6 1763/4/6
f 1764/7/6 1765/7/6 1768/7/6
f 1768/7/6 1765/7/6 1769/7/6
f 1766/7/6 1767/7/6 1770/7/6
f 1770/7/6 1767/7/6 1771/7/6
f 1772/4/6 1773/4/6 1776/4/6
f 1776/4/6 1773/4/6 1777/4/6
f 1774/4/6 1775/4/6 1778/4/6
f 1778/4/6 1775/4/6 1779/4/6
f 1780/4/6 1781/4/6 1782/4/6
f 1782/4/6 1781/4/6 1783/4/6
f 1784/4/6 1785/4/6 1791/4/6
f 1791/4/6 1785/4/6 1792/4/6
f 1786/5/6 1787/5/6 1794/5/6
f 1787/6/6 1788/6/6 1795/6/6
f 1794/5/6 1787/5/6 1795/5/6
f 1788/5/6 1789/5/6 1796/5/6
f 1795/6/6 1788/6/6 1796/6/6
f 1796/5/6 1789/5/6 1797/5/6
f 1790/4/6 1791/4/6 1799/4/6
f 1799/4/6 1791/4/6 1800/4/6
f 1795/5/6 1796/5/6 1801/5/6
f 1801/5/6 1796/5/6 1802/5/6
f 1793/5/6 1794/5/6 1803/5/6
f 1803/5/6 1794/5/6 1804/5/6
f 1804/5/6 1794/5/6 1805/5/6
f 1797/5/6 1798/5/6 1808/5/6
f 1808/5/6 1798/5/6 1809/5/6
f 1805/7/6 1806/7/6 1812/7/6
f 1812/7/6 1806/7/6 1813/7/6
f 1807/7/6 1808/7/6 1814/7/6
f 1814/7/6 1808/7/6 1815/7/6
f 1810/4/6 1811/4/6 1818/4/6
f 1818/4/6 1811/4/6 1819/4/6
f 1816/4/6 1817/4/6 1821/4/6
f 1821/4/6 1817/4/6 1822/4/6
f 1819/4/6 1820/4/6 1823/4/6
f 1823/4/6 1820/4/6 1824/4/6
f 1825/4/6 1826/4/6 1827/4/6
f 1827/4/6 1826/4/6 1828/4/6
f 1829/4/6 1830/4/6 1833/4/6
f 1833/4/6 1830/4/6 1834/4/6
f 1831/4/6 1832/4/6 1835/4/6
f 1835/4/6 1832/4/6 1836/4/6
f 1837/4/6 1838/4/6 1841/4/6
f 1841/4/6 1838/4/6 1842/4/6
f 1839/4/6 1840/4/6 1843/4/6
f 1843/4/6 1840/4/6 1844/4/6
f 1845/4/6 1846/4/6 1849/4/6
f 1849/4/6 1846/4/6 1850/4/6
f 1847/4/6 1848/4/6 1851/4/6
f 1851/4/6 1848/4/6 1852/4/6
f 1853/4/6 1854/4/6 1857/4/6
f 1857/4/6 1854/4/6 1858/4/6
f 1855/4/6 1856/4/6 1859/4/6
f 1859/4/6 1856/4/6 1860/4/6
f 1861/4/6 1862/4/6 1863/4/6
f 1863/4/6 1862/4/6 1864/4/6
f 1865/4/6 1866/4/6 1867/4/6
f 1867/4/6 1866/4/6 1868/4/6
f 1869/4/6 1870/4/6 1873/4/6
f 1873/4/6 1870/4/6 1874/4/6
f 1871/4/6 1872/4/6 1875/4/6
f 1875/4/6 1872/4/6 1876/4/6
f 1877/4/6 1878/4/6 1881/4/6
f 1881/4/6 1878/4/6 1882/4/6
f 1879/4/6 1880/4/6 1883/4/6
f 1883/4/6 1880/4/6 1884/4/6
f 1885/4/6 1886/4/6 1887/4/6
f 1887/4/6 1886/4/6 1888/4/6
f 1889/17/6 1890/17/6 1893/17/6
f 1893/17/6 1890/17/6 1894/17/6
f 1891/4/6 1892/4/6 1895/4/6
f 1895/4/6 1892/4/6 1896/4/6
f 1897/4/6 1898/4/6 1899/4/6
f 1899/4/6 1898/4/6 1900/4/6
f 1893/4/6 1894/4/6 1901/4/6
f 1901/4/6 1894/4/6 1902/4/6
f 1903/4/6 1904/4/6 1907/4/6
f 1907/4/6 1904/4/6 1908/4/6
f 1905/4/6 1906/4/6 1911/4/6
f 1911/4/6 1906/4/6 1912/4/6
f 1909/4/6 1910/4/6 1913/4/6
f 1913/4/6 1910/4/6 1914/4/6
f 1915/4/6 1916/4/6 1919/4/6
f 1919/4/6 1916/4/6 1920/4/6
f 1917/4/6 1918/4/6 1923/4/6
f 1923/4/6 1918/4/6 1924/4/6
f 1921/4/6 1922/4/6 1925/4/6
f 1925/4/6 1922/4/6 1926/4/6
f 1927/17/6 1928/17/6 1929/17/6
f 1929/17/6 1928/17/6 1930/17/6
f 1931/4/6 1932/4/6 1933/4/6
f 1933/4/6 1932/4/6 1934/4/6
f 1935/4/6 1936/4/6 1939/4/6
f 1939/4/6 1936/4/6 1940/4/6
f 1937/4/6 1938/4/6 1943/4/6
f 1943/4/6 1938/4/6 1944/4/6
f 1940/4/6 1941/4/6 1945/4/6
f 1945/4/6 1941/4/6 1946/4/6
f 1942/4/6 1943/4/6 1947/4/6
f 1947/4/6 1943/4/6 1948/4/6
f 1949/4/6 1950/4/6 1954/4/6
f 1954/4/6 1950/4/6 1955/4/6
f 1955/4/6 1950/4/6 1956/4/6
f 1951/4/6 1952/4/6 1957/4/6
f 1957/4/6 1952/4/6 1958/4/6
f 1958/4/6 1952/4/6 1959/4/6
f 1953/4/6 1954/4/6 1961/4/6
f 1954/4/6 1955/4/6 1961/4/6
f 1961/4/6 1955/4/6 1962/4/6
f 1959/4/6 1960/4/6 1963/4/6
f 1958/4/6 1959/4/6 1963/4/6
f 1963/4/6 1960/4/6 1964/4/6
f 1953/4/6 1961/4/6 1965/4/6
f 1965/4/6 1961/4/6 1966/4/6
f 1964/4/6 1960/4/6 1969/4/6
f 1969/4/6 1960/4/6 1970/4/6
f 1966/4/6 1967/4/6 1971/4/6
f 1971/4/6 1967/4/6 1972/4/6
f 1968/4/6 1969/4/6 1973/4/6
f 1973/4/6 1969/4/6 1974/4/6
f 1972/4/6 1973/4/6 1975/4/6
f 1975/4/6 1973/4/6 1976/4/6
f 1977/4/6 1978/4/6 1980/4/6
f 1980/4/6 1978/4/6 1981/4/6
f 1979/4/6 1980/4/6 1984/4/6
f 1981/4/6 1982/4/6 1984/4/6
f 1980/4/6 1981/4/6 1984/4/6
f 1984/4/6 1982/4/6 1985/4/6
f 1983/4/6 1984/4/6 1987/4/6
f 1985/4/6 1986/4/6 1987/4/6
f 1984/4/6 1985/4/6 1987/4/6
f 1987/4/6 1986/4/6 1988/4/6
f 1988/4/6 1986/4/6 1989/4/6
f 1989/4/6 1986/4/6 1990/4/6
f 1988/4/6 1989/4/6 1991/4/6
f 1991/4/6 1989/4/6 1992/4/6
